<svg width="50" height="50" viewBox="0 0 50 50" fill="none" xmlns="http://www.w3.org/2000/svg">
<circle cx="25" cy="25" r="25" fill="white"/>
<path d="M34.6641 22.3838V23.1465H35.409C35.7342 23.1465 35.9479 23.3517 36.0697 23.4843C36.1672 23.5934 38.3122 26.0256 38.3636 26.0895C38.4152 26.1535 38.4152 26.1542 38.4152 26.1948V27.4C38.415 27.4552 38.4095 27.5103 38.3987 27.5645C38.3835 27.5995 38.3608 27.6307 38.3323 27.6561C38.3037 27.6814 38.27 27.7002 38.2335 27.7112C38.1631 27.7201 38.0922 27.7245 38.0212 27.7245L37.2756 27.7236V28.4864H41.4579V27.7236H40.6709C40.6004 27.7239 40.53 27.7195 40.4601 27.7102C40.4237 27.6993 40.39 27.6805 40.3616 27.6552C40.3332 27.6299 40.3107 27.5986 40.2957 27.5636C40.2847 27.5094 40.279 27.4543 40.2787 27.399V26.1946C40.274 26.155 40.284 26.1151 40.3066 26.0823L42.6271 23.4351C42.8401 23.1979 42.9509 23.1464 43.2301 23.1464H44V22.3836H40.5532V23.1448H41.0734C41.1013 23.1431 41.129 23.1495 41.1534 23.1631C41.1778 23.1768 41.1978 23.1971 41.2109 23.2218C41.2241 23.2464 41.2299 23.2744 41.2276 23.3022C41.2253 23.3301 41.2151 23.3567 41.1982 23.3789C41.1872 23.3945 39.7552 25.0785 39.7372 25.0949C39.7192 25.1112 39.7077 25.1073 39.6944 25.0895C39.6811 25.0715 38.2662 23.3789 38.2662 23.3789C38.1663 23.2564 38.2443 23.1449 38.3614 23.1449H38.8683V22.3837L34.6641 22.3838Z" fill="black"/>
<path d="M24.4062 22.3839V23.1465H25.0738C25.5559 23.1465 25.5887 23.415 25.5887 23.649V27.2191C25.5887 27.4327 25.6011 27.726 25.2939 27.726H24.47V28.488H27.9872V27.726H27.1293C26.7868 27.726 26.7711 27.5694 26.7673 27.2362V24.1778L31.5978 28.4881H32.8263L32.7615 23.6201C32.7678 23.2643 32.7896 23.1458 33.1577 23.1458H33.9275V22.3839H30.3396V23.1458H31.1275C31.4894 23.1458 31.5501 23.2854 31.5547 23.6201L31.5978 26.1676L27.4045 22.3839H24.4062Z" fill="black"/>
<path d="M8.56849 22C7.81271 22 6.95399 22.142 6.2285 22.468C5.55138 22.7706 5 23.2566 5 24.0622C4.99897 24.4842 5.15946 24.8906 5.44854 25.198C5.64431 25.3789 5.96018 25.6863 6.78552 25.8672C7.15436 25.9453 7.94296 26.0708 8.72845 26.1535C9.51382 26.2362 10.2752 26.3095 10.5871 26.393C10.8352 26.4561 11.2525 26.542 11.2525 27.01C11.2525 27.478 10.8134 27.6183 10.7369 27.6488C10.6605 27.6792 10.1331 27.921 9.18619 27.921C8.55882 27.9036 7.93715 27.7967 7.34 27.6035C6.98669 27.4771 6.61623 27.311 6.27065 26.889C6.13118 26.6903 6.05379 26.4547 6.04828 26.212H5.19036V28.6144H6.14351V28.2892C6.14338 28.2651 6.14967 28.2414 6.16175 28.2205C6.17382 28.1996 6.19124 28.1823 6.2122 28.1704C6.23317 28.1585 6.25694 28.1524 6.28106 28.1527C6.30517 28.153 6.32877 28.1597 6.34942 28.1722C6.79845 28.3676 7.26553 28.5186 7.74397 28.623C8.24479 28.7275 8.56849 28.8032 9.19092 28.8032C9.84771 28.8157 10.5023 28.7233 11.1299 28.5294C11.5467 28.4151 11.9378 28.2221 12.282 27.9608C12.4755 27.8121 12.632 27.6205 12.7391 27.4011C12.8461 27.1818 12.9009 26.9405 12.899 26.6965C12.9023 26.2327 12.7234 25.7861 12.4007 25.453C12.2212 25.2789 12.0133 25.1367 11.786 25.0327C11.5416 24.9223 11.2878 24.8338 11.0278 24.7683C10.5333 24.6473 9.42261 24.496 8.89151 24.4429C8.3345 24.3854 7.36798 24.3049 6.98197 24.1856C6.86497 24.1488 6.62625 24.0359 6.62625 23.7589C6.62625 23.5616 6.73542 23.3947 6.95077 23.2597C7.29313 23.0453 7.9843 22.9118 8.70495 22.9118C9.40258 22.9034 10.0945 23.0385 10.7377 23.3088C10.9105 23.3841 11.073 23.4811 11.2212 23.5975C11.463 23.8039 11.6303 24.0839 11.6978 24.3946H12.4677V22.3034H11.6098V22.546C11.6098 22.624 11.5317 22.727 11.3757 22.642C10.9887 22.4407 9.90155 22.0055 8.56849 22Z" fill="black"/>
<path d="M18.8937 22.0006C17.542 22.0006 16.1067 22.4686 15.2955 23.2056C14.9863 23.4872 14.7394 23.8304 14.5708 24.2131C14.4022 24.5959 14.3156 25.0097 14.3166 25.4279C14.3118 25.8479 14.3966 26.264 14.5654 26.6486C14.7342 27.0331 14.9831 27.3772 15.2954 27.6579C16.1691 28.4433 17.4796 28.8645 18.8937 28.8645C20.3102 28.8645 21.6487 28.448 22.5013 27.6579C22.8044 27.3706 23.0462 27.025 23.2121 26.6417C23.3781 26.2584 23.4647 25.8455 23.4668 25.4279C23.4709 25.0107 23.3871 24.5973 23.2208 24.2147C23.0544 23.8321 22.8092 23.4888 22.5013 23.2073C21.5862 22.3774 20.3889 22.0006 18.8937 22.0006ZM18.8937 22.8928C19.6332 22.8928 20.3453 23.1589 20.8249 23.6309C21.289 24.0879 21.5315 24.7337 21.5315 25.4248C21.5315 26.1487 21.3109 26.7353 20.825 27.2188C20.3391 27.7025 19.6433 27.9614 18.8937 27.9614C18.1496 27.9614 17.439 27.697 16.9593 27.2188C16.7299 26.9808 16.5498 26.6998 16.4293 26.3919C16.3088 26.084 16.2504 25.7553 16.2573 25.4248C16.2573 24.7369 16.4968 24.0888 16.9593 23.6309C17.439 23.1566 18.1543 22.8928 18.8937 22.8928Z" fill="black"/>
</svg>
