<svg width="50" height="50" viewBox="0 0 50 50" fill="none" xmlns="http://www.w3.org/2000/svg">
<circle cx="25" cy="25" r="25" fill="white"/>
<g clip-path="url(#clip0_934_1469)">
<path d="M19.5164 12.9867C16.9497 15.5534 14.8817 17.724 14.955 17.7827C15.0137 17.8414 15.703 17.8707 16.495 17.856L17.9324 17.7974L21.071 21.0387C22.8017 22.828 24.2537 24.28 24.327 24.28C24.3857 24.28 24.4297 20.6867 24.4297 16.2867C24.4297 11.8867 24.3857 8.29336 24.3124 8.29336C24.2537 8.29336 22.0977 10.4054 19.5164 12.9867Z" fill="black"/>
<path d="M29.4884 16.6828C29.4297 16.8148 29.415 18.2374 29.4444 19.8361L29.4884 22.7694L31.747 25.1308C32.9937 26.4508 34.0937 27.4921 34.167 27.4628C34.2844 27.4188 34.3137 26.3921 34.2844 24.2654L34.2257 21.1268L31.9084 18.7801C30.1484 17.0201 29.547 16.5068 29.4884 16.6828Z" fill="black"/>
<path d="M9.55548 22.96L8.13281 24.4414L9.57015 25.9814C10.3475 26.8174 11.0661 27.492 11.1541 27.4627C11.3595 27.3894 11.3595 21.6107 11.1395 21.5374C11.0515 21.508 10.3475 22.1534 9.55548 22.96Z" fill="black"/>
<path d="M14.7053 21.5813C14.6613 21.64 14.6466 23.0773 14.6906 24.7787L14.7786 27.8733L17.008 30.1027C18.2253 31.3347 19.296 32.3467 19.3986 32.3467C19.5453 32.3467 19.5893 31.6573 19.5893 29.296V26.26L17.3013 23.8693C16.04 22.564 14.9693 21.4933 14.9106 21.4933C14.852 21.4933 14.7493 21.5373 14.7053 21.5813Z" fill="black"/>
<path d="M37.625 24.5C37.625 26.1574 37.669 27.5067 37.7423 27.5067C37.801 27.5067 38.5197 26.832 39.3557 25.996L40.8517 24.5L39.341 22.9894C38.5197 22.168 37.7863 21.4934 37.7277 21.4934C37.669 21.4934 37.625 22.8427 37.625 24.5Z" fill="black"/>
<path d="M24.5703 32.7134C24.5703 37.0254 24.6143 40.5601 24.6876 40.5601C24.893 40.5601 34.1183 31.2321 34.0156 31.1294C33.957 31.0707 33.2383 31.0267 32.4316 31.0267H30.9503L27.8703 27.9467C26.1836 26.2454 24.7463 24.8667 24.6876 24.8667C24.6143 24.8667 24.5703 28.4014 24.5703 32.7134Z" fill="black"/>
</g>
<defs>
<clipPath id="clip0_934_1469">
<rect width="33" height="33" fill="white" transform="translate(8 8)"/>
</clipPath>
</defs>
</svg>
