<svg width="50" height="50" viewBox="0 0 50 50" fill="none" xmlns="http://www.w3.org/2000/svg">
<circle cx="25" cy="25" r="25" fill="white"/>
<path d="M32.139 16.0775C29.0468 16.4956 26.3676 17.6571 24.948 19.2006L24.5609 19.6188L24.406 19.3968C24.0963 18.9477 23.4407 18.4005 22.3308 17.6623C21.2983 16.9705 19.5742 15.9949 19.507 16.062C19.4451 16.1291 19.4296 17.3525 19.4864 17.8533C19.6 18.7928 19.7703 19.3916 20.1678 20.2124C20.6995 21.3171 21.732 22.4373 22.8212 23.0929L23.1309 23.2788L23.1361 23.986C23.1412 24.8068 23.2238 25.2249 23.4923 25.7618L23.673 26.118L23.4458 26.2161C22.8005 26.5051 21.9023 26.5826 21.2467 26.4071C19.7239 25.9993 18.4436 24.6932 17.659 22.7367C17.4164 22.1173 17.1634 21.2449 17.215 21.1932C17.2718 21.1364 17.9894 21.281 18.5056 21.4513C19.0012 21.6114 19.6309 21.9263 20.0594 22.2308C21.0351 22.9226 21.9694 24.2131 22.3824 25.4417C22.496 25.7721 22.5786 25.8857 22.6508 25.8134C22.6973 25.767 22.5218 25.0133 22.3772 24.6158C21.7578 22.9535 20.364 21.5907 18.5469 20.8783C18.0874 20.6977 17.4835 20.548 17.024 20.5067L16.6523 20.4705V20.8009C16.6523 21.5907 16.9053 22.5612 17.3492 23.4543C18.3146 25.4108 20.0336 26.7787 21.7371 26.9439C22.5269 27.0214 23.4716 26.8923 23.9414 26.6497C24.0911 26.5723 24.1066 26.5723 24.2356 26.6703C24.4886 26.8562 24.8809 27.0265 25.2629 27.1195C25.7533 27.2382 26.6722 27.202 27.2349 27.042C29.8005 26.3038 31.9325 23.542 32.5726 20.1247C32.7326 19.2677 32.7533 19.1077 32.8152 18.1114C32.8823 17.0273 32.8462 15.9897 32.743 16C32.7068 16.0052 32.4384 16.0362 32.139 16.0775ZM32.3197 16.5111C32.4074 16.6556 32.2835 16.8673 31.9944 17.0583C31.0033 17.7087 29.7953 18.8083 29.0726 19.7117C28.6235 20.2744 28.0402 21.1571 27.7098 21.7766C27.2142 22.7006 26.6154 24.2596 26.5948 24.6726C26.5793 25.0184 26.7135 24.8532 26.9768 24.1925C27.8079 22.0966 29.052 20.166 30.358 18.9477C30.9155 18.4263 32.0512 17.5435 32.17 17.5435C32.2216 17.5435 32.1545 18.6534 32.0615 19.3503C31.6124 22.7522 30.327 25.0236 28.2673 26.0612C27.0594 26.6703 25.6604 26.8097 24.8706 26.4019C24.7828 26.3554 24.6951 26.2987 24.6796 26.2677C24.6589 26.2367 24.7415 26.1025 24.8603 25.9683C25.1545 25.6379 25.4539 24.9875 25.5623 24.4609C25.6294 24.115 25.6449 23.8621 25.6191 23.2478C25.583 22.3547 25.4333 21.6527 25.0719 20.7493C24.9583 20.455 24.8603 20.1814 24.8603 20.1401C24.8603 20.0111 25.9392 18.9838 26.4605 18.6173C27.684 17.7552 29.656 16.9344 31.2614 16.6195C32.1648 16.444 32.2732 16.4337 32.3197 16.5111ZM20.5498 17.1822C21.4119 17.6778 22.0004 18.0856 22.7179 18.6844C23.1671 19.0561 23.962 19.8614 24.1066 20.0834C24.1943 20.2176 24.1892 20.2279 24.0601 20.5221C23.7452 21.2036 23.4045 22.1482 23.3322 22.5354C23.3168 22.6283 23.2755 22.7058 23.2393 22.7058C23.1051 22.7058 22.274 22.0811 21.8662 21.6733C20.7718 20.5841 20.0801 19.0096 19.9716 17.3732C19.9355 16.7847 19.8891 16.8002 20.5498 17.1822ZM24.6899 20.9093C24.8706 21.1984 25.1442 21.854 25.2526 22.2566C25.3145 22.4735 25.3403 22.7832 25.3403 23.222C25.3403 23.7898 25.3249 23.9189 25.2061 24.2699C25.1287 24.4919 24.9842 24.8016 24.8809 24.9616C24.6899 25.2611 24.2563 25.7515 24.184 25.7515C24.1221 25.7515 23.9104 25.3127 23.7968 24.9513C23.6471 24.4661 23.6626 23.0103 23.8227 22.3444C24.0085 21.5752 24.375 20.6925 24.5041 20.6925C24.5299 20.6925 24.6125 20.7906 24.6899 20.9093Z" fill="black"/>
<path d="M33.1177 29.4115C32.9577 29.4373 32.8028 29.4682 32.7667 29.4889C32.6944 29.5354 32.6841 34.4549 32.7563 34.4962C32.8648 34.5634 34.0521 34.5892 34.4909 34.5324C36.0085 34.3465 36.8242 33.5206 36.9274 32.07C37.0203 30.7536 36.406 29.8193 35.2239 29.4837C34.9142 29.396 33.5617 29.3495 33.1177 29.4115ZM34.5941 29.8864C35.7091 30.0413 36.2718 30.7072 36.2718 31.8635C36.2718 32.8805 35.8124 33.6342 35.0226 33.9078C34.6819 34.0213 33.7681 34.1091 33.5152 34.042L33.381 34.011V31.9719V29.9328L33.4997 29.907C33.8714 29.8296 34.1398 29.8193 34.5941 29.8864Z" fill="black"/>
<path d="M7 29.4579C7 29.4785 7.3149 30.4594 7.70206 31.6363C8.08406 32.8133 8.45058 33.9387 8.51769 34.14L8.63126 34.5014L8.99261 34.5169L9.35913 34.5323L9.44173 34.3104C9.48819 34.1865 9.80824 33.2986 10.1489 32.3332C11.1298 29.5973 11.1814 29.4476 11.1814 29.4269C11.1814 29.4218 11.0265 29.4166 10.8407 29.4269L10.5 29.4424L9.91665 31.1511C9.59659 32.0906 9.27137 33.0869 9.19394 33.3605C9.11135 33.6341 9.03907 33.8509 9.02875 33.8406C9.01843 33.8251 8.95132 33.598 8.87905 33.3347C8.80677 33.0663 8.56415 32.2558 8.33701 31.5331C8.10471 30.8104 7.86209 30.0361 7.79498 29.8141L7.66593 29.4166H7.33554C7.1497 29.4166 7 29.4321 7 29.4579Z" fill="black"/>
<path d="M13.0644 29.4785C12.7908 30.258 11.3867 34.4291 11.3867 34.4704C11.3867 34.5117 11.4848 34.5272 11.7068 34.5168L12.0268 34.5013L12.2746 33.7115L12.5276 32.9269H13.4671H14.4066L14.6699 33.7115L14.928 34.5013L15.2739 34.5168C15.4649 34.5272 15.6197 34.522 15.6197 34.5117C15.6197 34.5013 15.3823 33.8096 15.0983 32.9733C14.8093 32.1371 14.4221 30.9962 14.2363 30.4335L13.8904 29.4166H13.4877C13.2141 29.4166 13.0799 29.4372 13.0644 29.4785ZM13.8956 31.3008C14.0762 31.8376 14.2259 32.3126 14.2259 32.3435C14.2259 32.3952 14.0349 32.4107 13.4516 32.4107C13.0283 32.4107 12.6773 32.4055 12.6773 32.3952C12.6773 32.3848 12.8012 32.008 12.956 31.5537C13.1109 31.1046 13.2761 30.5936 13.3225 30.4232C13.4516 29.9483 13.4619 29.938 13.5187 30.1393C13.5445 30.2374 13.7149 30.7587 13.8956 31.3008Z" fill="black"/>
<path d="M16.8086 31.9719V34.5323L17.108 34.5169L17.4022 34.5014L17.3919 32.3591C17.3868 30.7278 17.4022 30.2425 17.4435 30.3097C17.4797 30.3561 17.6397 30.6452 17.8049 30.9498C17.9701 31.2595 18.5276 32.1784 19.0438 33.0043L19.9834 34.5014L20.3034 34.5169C20.6028 34.5323 20.6286 34.522 20.6544 34.4136C20.6699 34.3465 20.6751 33.2005 20.6699 31.8686L20.6544 29.4424L20.3499 29.4269L20.0505 29.4114L20.066 31.5228L20.0866 33.629L19.7149 32.9579C19.5084 32.5862 18.9354 31.6415 18.445 30.862L17.5468 29.4424L17.1751 29.4269L16.8086 29.4114V31.9719Z" fill="black"/>
<path d="M22.7241 31.9461C22.2544 33.3348 21.8672 34.4859 21.8672 34.5014C21.8672 34.5169 22.0117 34.5272 22.1924 34.5169L22.5125 34.5014L22.7706 33.7271L23.0338 32.9527L23.9682 32.9373L24.9026 32.9269L25.171 33.7271L25.4394 34.5272H25.7698C25.9505 34.5272 26.1002 34.5066 26.1002 34.4859C26.1002 34.4446 26.0744 34.362 25.0471 31.3576C24.6909 30.3097 24.3967 29.4424 24.3967 29.4321C24.3967 29.427 24.216 29.4166 23.9889 29.4166H23.5862L22.7241 31.9461ZM24.0611 30.2271C24.0766 30.3303 24.2418 30.8569 24.4276 31.3989L24.758 32.3849L23.9992 32.4004C23.5862 32.4056 23.2352 32.4004 23.2197 32.3849C23.2042 32.3694 23.3333 31.9203 23.5088 31.3886C23.6843 30.8569 23.8546 30.3252 23.8805 30.2013C23.9476 29.9483 24.0095 29.9535 24.0611 30.2271Z" fill="black"/>
<path d="M27.2955 31.9564L27.311 34.5014L27.6104 34.5169L27.9149 34.5323L27.8943 32.39C27.8891 31.2079 27.8891 30.2425 27.9098 30.2425C27.9253 30.2425 27.9872 30.351 28.0543 30.4852C28.2505 30.8982 28.6015 31.4918 29.5669 33.0405L30.4961 34.5272H30.8264H31.1568V31.9719V29.4166H30.8471H30.5374L30.5425 30.8465C30.5477 31.6363 30.5632 32.5759 30.5786 32.9424C30.5993 33.3037 30.5993 33.598 30.5786 33.598C30.558 33.598 30.4135 33.345 30.2534 33.0353C30.0934 32.7256 29.5256 31.7912 28.999 30.9601L28.0337 29.4424L27.6568 29.4269L27.2852 29.4114L27.2955 31.9564Z" fill="black"/>
<path d="M39.4473 29.4786C39.4318 29.5147 39.1478 30.3562 38.8071 31.3525C38.4716 32.3436 38.0999 33.438 37.9812 33.7735C37.8625 34.1142 37.7695 34.4188 37.7695 34.4601C37.7695 34.5066 37.8521 34.5272 38.0741 34.5272H38.3787L38.6471 33.7271L38.9155 32.9269L39.8499 32.9373L40.7894 32.9527L41.0527 33.7271L41.316 34.5014L41.6567 34.5169C41.8477 34.5272 42.0025 34.5272 42.0025 34.5169C41.9974 34.5066 41.6102 33.3606 41.1301 31.9719L40.2629 29.4424L39.8654 29.427C39.5815 29.4166 39.4627 29.4321 39.4473 29.4786ZM39.9377 30.2529C39.9686 30.3768 40.1338 30.8879 40.299 31.3989C40.4694 31.9048 40.6087 32.3384 40.6087 32.3643C40.6087 32.3901 40.2577 32.4107 39.8293 32.4107C39.2201 32.4107 39.0549 32.3952 39.0756 32.3436C39.1582 32.1216 39.726 30.3407 39.757 30.2013C39.8034 29.9741 39.8706 29.9948 39.9377 30.2529Z" fill="black"/>
</svg>
