<svg width="50" height="50" viewBox="0 0 50 50" fill="none" xmlns="http://www.w3.org/2000/svg">
<rect width="50" height="50" rx="25" fill="white"/>
<path d="M24.5853 15.0272C24.2675 15.0493 23.8406 15.1239 23.5146 15.2125C22.2623 15.5565 21.1529 16.3551 20.4318 17.4335C20.0202 18.0479 19.7681 18.6588 19.6227 19.3863C19.5113 19.9425 19.4937 20.5126 19.5699 21.1177C19.7141 22.2719 20.2606 23.3725 21.1107 24.2189C21.8812 24.9872 22.8392 25.4944 23.9368 25.7159C24.1338 25.7555 24.5958 25.8103 24.7307 25.8103H24.7776L24.7365 25.7637C24.6685 25.6844 24.6533 25.5958 24.6931 25.5083C24.706 25.4804 24.7154 25.4559 24.7142 25.4547C24.7119 25.4535 24.6849 25.4407 24.6544 25.4267C24.4399 25.3346 24.2675 25.1434 24.1913 24.9161C24.1643 24.8356 24.1608 24.8065 24.1608 24.6677C24.1608 24.5278 24.1643 24.4999 24.1924 24.4171C24.21 24.3658 24.244 24.29 24.2698 24.248C24.2956 24.2061 24.3132 24.1688 24.3109 24.1641C24.3073 24.1583 24.2898 24.1548 24.2722 24.1548C24.2159 24.1548 24.0646 24.1116 23.972 24.0685C23.7457 23.9647 23.5639 23.784 23.4548 23.5555C23.388 23.4144 23.3669 23.327 23.3622 23.1579C23.3528 22.8805 23.4302 22.6601 23.6131 22.4444C23.653 22.3978 23.6847 22.357 23.6847 22.3535C23.6847 22.35 23.6753 22.3477 23.6624 22.3477C23.6155 22.3477 23.4302 22.2859 23.3165 22.2322C23.0268 22.097 22.7946 21.8895 22.6293 21.6178C22.4405 21.3089 22.3701 20.9556 22.4253 20.5884C22.4722 20.2689 22.6234 19.9728 22.8627 19.7361C23.0022 19.5974 23.0901 19.5321 23.2508 19.4458C23.4677 19.3316 23.6917 19.2744 23.9802 19.2616C24.1373 19.2546 24.1408 19.2546 24.2053 19.2861C24.3144 19.3397 24.3883 19.4528 24.3883 19.5671C24.3883 19.7897 24.1385 19.9495 23.9403 19.8539C23.8828 19.827 23.7785 19.7233 23.7785 19.6941C23.7785 19.6732 23.68 19.672 23.5897 19.6941C23.4091 19.7361 23.123 19.9565 22.9846 20.1617C22.7079 20.5709 22.7067 21.0664 22.9834 21.4849C23.0937 21.6516 23.3118 21.8347 23.5135 21.9291C23.7644 22.0457 23.911 22.0679 24.4305 22.0679H24.7987V20.424V18.7801H24.4504C24.0505 18.7801 24.0294 18.7754 23.9708 18.688C23.9438 18.646 23.9403 18.632 23.945 18.5702C23.9497 18.5131 23.9556 18.4945 23.9849 18.4641C24.0505 18.3954 24.0505 18.3954 24.441 18.3954H24.7987V18.1214V17.8474H23.9626H23.1253L23.0749 17.8206C23.0163 17.7903 22.9694 17.7157 22.9694 17.6562C22.9694 17.5967 23.0163 17.5186 23.069 17.4895L23.1159 17.4627H23.9579H24.7987V17.1887V16.9147H23.4806H22.1638L22.1239 16.8879C22.0559 16.8424 22.0289 16.7911 22.0336 16.7153C22.0395 16.6361 22.0711 16.5883 22.1403 16.5544C22.1907 16.53 22.1978 16.53 23.4947 16.53H24.7987V16.1627C24.7987 15.94 24.794 15.7955 24.7881 15.7955C24.76 15.7955 24.6369 15.6637 24.6052 15.6008C24.5583 15.5075 24.5501 15.3664 24.5876 15.2685C24.6157 15.1927 24.6978 15.0959 24.7741 15.047L24.8268 15.0143L24.7682 15.0155C24.7365 15.0167 24.6544 15.0213 24.5853 15.0272Z" fill="black"/>
<path d="M25.2149 15.047C25.4494 15.1834 25.4998 15.4947 25.3216 15.6964C25.2934 15.729 25.2512 15.7652 25.2278 15.778L25.1856 15.8013V16.165V16.53H26.4907C27.7337 16.53 27.797 16.5311 27.8416 16.5521C27.919 16.5871 27.9647 16.6524 27.9647 16.7258C27.9635 16.776 27.9237 16.8506 27.8815 16.8809L27.8416 16.9089L26.5165 16.9147L25.1914 16.9205L25.1879 17.191L25.1856 17.4627H26.024C26.9516 17.4627 26.9117 17.4592 26.9774 17.5384C27.0407 17.6154 27.036 17.711 26.9645 17.7879C26.9082 17.8486 26.9258 17.8474 26.024 17.8474H25.1856L25.1879 18.1179L25.1914 18.3895L25.5608 18.3954C25.9607 18.4012 25.9595 18.4012 26.0123 18.4688C26.0697 18.5458 26.065 18.6379 25.9982 18.7101C25.9748 18.737 25.9396 18.7614 25.9149 18.7684C25.8903 18.7754 25.7238 18.7801 25.5291 18.7801H25.1856V20.424V22.0679H25.5819C25.7989 22.0679 26.0252 22.062 26.0826 22.055C26.5517 21.9979 26.941 21.7332 27.138 21.3392C27.2154 21.1841 27.2482 21.0582 27.2576 20.8787C27.2705 20.6175 27.2048 20.3855 27.0536 20.1593C26.9164 19.953 26.6127 19.7233 26.4344 19.6906C26.3183 19.6697 26.2703 19.6732 26.255 19.7058C26.2327 19.7559 26.1682 19.8189 26.1073 19.8492C26.0604 19.8737 26.031 19.8807 25.9712 19.8795C25.8809 19.8795 25.8282 19.8597 25.7602 19.7979C25.5878 19.644 25.6335 19.3747 25.8469 19.2803C25.9009 19.2569 25.9161 19.2558 26.0686 19.2628C26.1577 19.2674 26.2738 19.2791 26.3265 19.2884C27.0512 19.4213 27.5824 20.0113 27.6305 20.7329C27.6598 21.1853 27.4851 21.6202 27.1392 21.9478C27.0055 22.076 26.8636 22.1705 26.6959 22.2451C26.5822 22.2952 26.3734 22.3593 26.3183 22.3593C26.3019 22.3593 26.3125 22.3756 26.3617 22.4281C26.506 22.5832 26.6009 22.7919 26.6279 23.011C26.6748 23.3888 26.4848 23.7817 26.1506 23.9962C26.0252 24.0767 25.8903 24.1256 25.6921 24.1618L25.6652 24.1676L25.6957 24.2049C25.7801 24.3157 25.8352 24.4975 25.8352 24.6677C25.8352 24.8146 25.8141 24.9009 25.7449 25.0408C25.7062 25.1213 25.6757 25.1609 25.5901 25.246C25.5034 25.3335 25.4658 25.3614 25.3791 25.4046L25.2723 25.457L25.2934 25.5025C25.3052 25.527 25.3146 25.5713 25.3146 25.6004C25.3146 25.6634 25.27 25.7637 25.2313 25.7916C25.2043 25.8103 25.2043 25.8103 25.2501 25.8103C25.4998 25.8091 26.0052 25.7345 26.3605 25.6459C28.1113 25.2099 29.563 23.8948 30.1622 22.2019C30.3698 21.6143 30.4671 21.0431 30.466 20.4065C30.466 20.0637 30.4472 19.8457 30.3909 19.5146C30.1306 17.9721 29.1983 16.6151 27.8357 15.7955C27.0817 15.3419 26.1788 15.0656 25.297 15.0202L25.1562 15.0132L25.2149 15.047Z" fill="black"/>
<path d="M24.353 22.4072C24.0751 22.4538 23.83 22.6788 23.7667 22.9435C23.7444 23.0391 23.7444 23.2069 23.7667 23.3025C23.8078 23.4751 23.9625 23.6733 24.1185 23.7549C24.2604 23.8284 24.3307 23.8423 24.5793 23.8493L24.8045 23.854V23.1242V22.3943L24.6087 22.3955C24.4996 22.3967 24.3859 22.4013 24.353 22.4072Z" fill="black"/>
<path d="M25.1875 23.1242V23.854L25.4197 23.8493C25.6354 23.8447 25.6577 23.8412 25.7492 23.8109C26.2382 23.6453 26.4106 23.067 26.0904 22.6636C26.033 22.5914 25.9239 22.5086 25.8266 22.4631C25.7164 22.4118 25.6014 22.3943 25.381 22.3943H25.1875V23.1242Z" fill="black"/>
<path d="M24.7272 24.2527C24.6181 24.325 24.5478 24.4229 24.5149 24.5453C24.4586 24.7552 24.5665 25.0024 24.7565 25.0991L24.8034 25.1224V24.6677C24.8034 24.4182 24.7999 24.2131 24.794 24.2131C24.7893 24.2131 24.7588 24.2305 24.7272 24.2527Z" fill="black"/>
<path d="M25.1875 24.6677C25.1875 24.9172 25.1922 25.1224 25.1969 25.1224C25.218 25.1224 25.3153 25.0525 25.3622 25.0047C25.5287 24.8321 25.5393 24.543 25.3845 24.353C25.3493 24.3087 25.2215 24.2131 25.1981 24.2131C25.1922 24.2131 25.1875 24.4113 25.1875 24.6677Z" fill="black"/>
<path d="M39.6688 29.1214C39.0649 29.1704 38.7412 29.4537 38.7107 29.9573C38.699 30.1614 38.7471 30.3094 38.8773 30.4657C38.9324 30.5321 38.9394 30.5449 38.9218 30.5508C38.733 30.6126 38.5008 30.749 38.5243 30.7863C38.529 30.7933 38.6181 30.8772 38.7225 30.9705C38.8268 31.0649 38.9288 31.1582 38.95 31.1768L38.9863 31.2107L39.0473 31.1629C39.2396 31.0113 39.5257 30.9413 39.8974 30.9553C40.1718 30.9647 40.3313 31.0101 40.4427 31.1104C40.5178 31.178 40.5483 31.2515 40.5483 31.3669C40.5483 31.4485 40.5436 31.4706 40.5119 31.5324C40.4685 31.6187 40.4064 31.6747 40.2961 31.7271C40.1754 31.7843 40.0816 31.8029 39.8951 31.8111C39.5199 31.8262 39.2408 31.7388 39.0438 31.5441C38.9617 31.4625 38.95 31.4543 38.9265 31.466C38.9042 31.4788 38.3789 31.8227 38.3683 31.8332C38.3566 31.8437 38.4375 31.9556 38.5149 32.0361C38.7541 32.2844 39.093 32.4092 39.6277 32.4441C40.1507 32.4791 40.6257 32.3824 40.9317 32.1807C41.2167 31.993 41.3726 31.6747 41.3539 31.3202C41.3374 30.9926 41.1967 30.756 40.9411 30.6231C40.8825 30.5939 40.8133 30.5624 40.7863 30.5543C40.7582 30.5461 40.7359 30.5379 40.7359 30.5356C40.7359 30.5333 40.7629 30.4983 40.7969 30.4587C40.8766 30.3631 40.9329 30.2406 40.9493 30.1241C40.9763 29.941 40.9259 29.6962 40.8285 29.5353C40.7769 29.449 40.6409 29.3219 40.5471 29.2695C40.3395 29.1541 39.9889 29.0946 39.6688 29.1214ZM39.9877 29.6332C40.0956 29.6659 40.2012 29.7731 40.234 29.8827C40.2563 29.9597 40.2528 30.1311 40.227 30.2045C40.2012 30.2803 40.1261 30.3584 40.0464 30.3957C39.9983 30.4179 39.9713 30.4214 39.833 30.4214C39.6829 30.4214 39.6711 30.419 39.6078 30.3887C39.5328 30.3514 39.4776 30.2954 39.4413 30.2185C39.4214 30.1742 39.4167 30.1415 39.4167 30.0366C39.4167 29.92 39.4202 29.9014 39.4507 29.8349C39.5011 29.7265 39.6008 29.6472 39.7192 29.6227C39.7802 29.6099 39.9291 29.6157 39.9877 29.6332Z" fill="black"/>
<path d="M17.7039 29.133C17.4964 29.1587 17.324 29.2065 17.1575 29.2834C16.7576 29.47 16.5243 29.8174 16.4727 30.2989C16.4668 30.363 16.4609 30.827 16.4609 31.4041V32.3975L16.8573 32.3951L17.2525 32.3916L17.2548 31.3773C17.2583 30.2942 17.2583 30.2884 17.317 30.131C17.3733 29.9818 17.5128 29.8512 17.6711 29.7987C17.8259 29.7474 18.0452 29.7404 18.2047 29.7812C18.3219 29.8104 18.411 29.8617 18.4873 29.9421C18.6233 30.0867 18.6749 30.2453 18.6866 30.5496L18.6948 30.7478H19.0759H19.457L19.4547 30.5659C19.4488 29.9491 19.2084 29.5143 18.7499 29.2857C18.6467 29.2345 18.4579 29.1727 18.3313 29.1493C18.207 29.1272 17.8353 29.1179 17.7039 29.133Z" fill="black"/>
<path d="M20.9739 29.133C20.4743 29.196 20.0955 29.4385 19.9021 29.8209C19.7942 30.0331 19.7508 30.2266 19.7414 30.5344L19.7344 30.7536H20.1178H20.5001V30.6393C20.5001 30.2161 20.6268 29.9363 20.8683 29.8267C20.9903 29.7708 21.0618 29.7579 21.2271 29.7579C21.4734 29.7591 21.6141 29.8069 21.7443 29.9363C21.8311 30.0226 21.8733 30.096 21.9108 30.2266C21.9354 30.3152 21.9366 30.3304 21.9401 31.3563L21.9436 32.3975H22.3353H22.7281V31.9195V31.4414H23.0541C23.2335 31.4414 23.3836 31.4391 23.386 31.4368C23.3883 31.4345 23.3895 31.2945 23.3871 31.1278L23.3836 30.8235H23.0576H22.7305L22.7246 30.5169C22.7199 30.2954 22.7129 30.1893 22.7 30.1298C22.6202 29.7882 22.4561 29.5411 22.1981 29.3732C22.0304 29.2648 21.8322 29.1901 21.6083 29.1493C21.4851 29.1272 21.0982 29.1179 20.9739 29.133Z" fill="black"/>
<path d="M10.8241 29.9515V30.7349L10.7924 30.7792C10.735 30.8632 10.5954 30.946 10.4465 30.9868C10.1158 31.0754 9.7476 31.0299 9.57522 30.8807C9.51659 30.8294 9.4603 30.7408 9.42747 30.6475C9.40284 30.5775 9.40049 30.5496 9.3958 30.2371L9.39111 29.9025H9.01587H8.64062L8.64532 30.3245C8.65118 30.7373 8.65118 30.7512 8.68167 30.8643C8.79659 31.2934 9.09326 31.5347 9.63385 31.635C9.72649 31.6525 9.80623 31.6571 10.0091 31.6571C10.2518 31.6571 10.2741 31.6548 10.3843 31.6257C10.518 31.5907 10.6669 31.5301 10.7537 31.4776C10.7866 31.4578 10.8147 31.4414 10.8182 31.4414C10.8217 31.4414 10.8241 31.6571 10.8241 31.9195V32.3975L11.5722 32.3951L12.3192 32.3916V32.0885V31.7854L11.9651 31.7819L11.6097 31.7795V30.4738V29.168H11.2169H10.8241V29.9515Z" fill="black"/>
<path d="M12.6266 29.1727C12.6243 29.175 12.6243 29.6705 12.6278 30.2721L12.6348 31.3657L12.6665 31.4916C12.7017 31.6362 12.7861 31.8227 12.8635 31.9265C13.0593 32.1923 13.3654 32.359 13.8004 32.4348C13.9318 32.457 14.3305 32.4546 14.463 32.4301C14.7022 32.3858 14.8992 32.3101 15.0599 32.2005L15.1455 32.1433L15.4656 32.3579C15.6427 32.4756 15.7892 32.5724 15.7928 32.5712C15.7963 32.5712 15.8279 32.5304 15.8631 32.4814C15.8983 32.4325 15.9733 32.3276 16.0308 32.2506C16.0871 32.1725 16.134 32.1037 16.134 32.099C16.134 32.0932 15.9933 31.9988 15.8209 31.8903C15.6497 31.7808 15.5043 31.6898 15.4996 31.6852C15.4937 31.6817 15.5043 31.635 15.5231 31.5802C15.6133 31.3226 15.618 31.2503 15.618 30.1392V29.168H15.2381H14.857L14.8523 30.1672C14.8476 31.2375 14.8488 31.2235 14.7878 31.396C14.7186 31.5919 14.5955 31.7178 14.4102 31.7819C14.307 31.8169 14.0174 31.8262 13.9048 31.7982C13.6644 31.7376 13.5202 31.5989 13.4463 31.3599L13.4205 31.2724L13.4158 30.2197L13.4123 29.168H13.0218C12.8072 29.168 12.629 29.1704 12.6266 29.1727Z" fill="black"/>
<path d="M23.7156 30.2488C23.7191 31.3004 23.7203 31.3342 23.7438 31.4415C23.8622 31.9673 24.1988 32.2879 24.7581 32.408C25.1017 32.4814 25.5039 32.4663 25.8064 32.3683C25.9178 32.331 26.0644 32.2587 26.1582 32.1935L26.2321 32.1433L26.5558 32.359C26.734 32.4768 26.8829 32.5712 26.8864 32.5689C26.8888 32.5654 26.9674 32.4593 27.06 32.3322C27.189 32.155 27.2253 32.0967 27.2148 32.0874C27.2066 32.0792 27.0659 31.9883 26.9017 31.8845C26.7375 31.7807 26.598 31.691 26.5921 31.6851C26.5851 31.6793 26.5933 31.6397 26.612 31.5849C26.7012 31.3225 26.7023 31.3109 26.7023 30.1707V29.1738L26.3224 29.1703L25.9413 29.168L25.9366 30.1847C25.9331 31.1966 25.9331 31.2036 25.9073 31.3016C25.8334 31.579 25.6868 31.7353 25.4418 31.7971C25.3972 31.8087 25.3175 31.8145 25.2178 31.8145C24.9692 31.8145 24.8249 31.7656 24.6971 31.6397C24.6186 31.5616 24.5658 31.4648 24.5306 31.3354C24.5048 31.2386 24.5048 31.2293 24.5013 30.2021L24.4966 29.168H24.1038H23.7109L23.7156 30.2488Z" fill="black"/>
<path d="M27.0781 29.4711V29.7743H27.4006H27.7231V30.4318C27.7231 30.8095 27.7289 31.1535 27.736 31.2398C27.7794 31.7446 28.0045 32.0885 28.4208 32.2879C28.9473 32.5409 29.7564 32.5012 30.2267 32.2016C30.3955 32.0943 30.555 31.909 30.6195 31.7457C30.6793 31.5918 30.6922 31.5091 30.6981 31.2164L30.7039 30.9401H30.3287H29.9546L29.9476 31.129C29.9382 31.3983 29.9077 31.4916 29.7846 31.6222C29.706 31.7061 29.5946 31.7679 29.4644 31.7982C29.3448 31.825 29.047 31.8157 28.9508 31.7819C28.7386 31.7049 28.6178 31.5732 28.5486 31.3423C28.5287 31.2782 28.5275 31.1908 28.524 30.2196L28.5193 29.168H27.7993H27.0781V29.4711Z" fill="black"/>
<path d="M31.1562 30.1846C31.1562 31.2526 31.1586 31.3225 31.2102 31.5207C31.2395 31.6362 31.3181 31.8134 31.3802 31.9031C31.4787 32.0454 31.6546 32.1958 31.8188 32.2786C32.1847 32.4604 32.7252 32.5059 33.1673 32.3916C33.301 32.3567 33.525 32.2552 33.6153 32.1876L33.6763 32.141L34.0011 32.3578C34.1793 32.4768 34.3294 32.57 34.3341 32.5642C34.3669 32.5315 34.6718 32.1002 34.6683 32.0932C34.6648 32.0885 34.5205 31.9952 34.3458 31.8845C34.1723 31.7749 34.0292 31.6793 34.0292 31.6746C34.0292 31.6688 34.0445 31.6187 34.0632 31.5615C34.1512 31.2981 34.1605 31.1593 34.1559 30.0541L34.1523 29.1738L33.7689 29.1703L33.3843 29.168V30.138C33.3843 30.9425 33.3807 31.1278 33.3667 31.2164C33.3139 31.5394 33.1533 31.7353 32.8894 31.7971C32.7909 31.8204 32.5341 31.8204 32.4356 31.7971C32.1952 31.7399 32.0475 31.5907 31.9748 31.3307C31.949 31.2386 31.949 31.2304 31.9443 30.2021L31.9407 29.168H31.5491H31.1562V30.1846Z" fill="black"/>
<path d="M34.5234 29.4712V29.7743L34.8494 29.7766L35.1743 29.7801L35.1813 30.5729C35.1872 31.3237 35.1895 31.3704 35.2118 31.4648C35.3103 31.8624 35.519 32.1247 35.8755 32.2926C36.2414 32.4663 36.7784 32.5036 37.2346 32.387C37.6321 32.2844 37.9264 32.0629 38.0578 31.7644C38.1223 31.6199 38.1375 31.5254 38.1434 31.2223L38.1492 30.9402H37.7728H37.3964V31.0999C37.3964 31.3715 37.3495 31.5103 37.2146 31.6397C37.0716 31.7761 36.9215 31.8204 36.6424 31.8111C36.4513 31.8052 36.3926 31.7912 36.2695 31.7248C36.1487 31.6595 36.0397 31.5056 35.9928 31.3354C35.9752 31.2678 35.9728 31.1628 35.9693 30.2138L35.9646 29.168H35.2446H34.5234V29.4712Z" fill="black"/>
<path d="M10.2596 33.9143C10.1365 33.9434 10.0227 34.0355 9.97932 34.1463C9.95469 34.2069 9.95235 34.2302 9.94883 34.5742L9.94531 34.9391H10.045H10.1458V34.6056C10.1458 34.2337 10.1505 34.2023 10.2162 34.1335C10.3123 34.0332 10.5246 34.046 10.5985 34.1568C10.6419 34.2232 10.6512 34.3037 10.6501 34.6301L10.6489 34.9333H10.7462H10.8436L10.8471 34.6161C10.8506 34.2605 10.8389 34.1696 10.7814 34.0763C10.7404 34.0099 10.6419 33.9423 10.5504 33.9189C10.4753 33.9003 10.3311 33.898 10.2596 33.9143Z" fill="black"/>
<path d="M11.4225 33.9143C11.3451 33.9294 11.2313 33.9959 11.1891 34.0518C11.1164 34.1463 11.1094 34.1929 11.1094 34.5835V34.9332H11.2055H11.3029L11.3052 34.5893C11.3087 34.2465 11.3087 34.2442 11.338 34.1871C11.3627 34.1393 11.3803 34.1229 11.4319 34.0961C11.5081 34.0577 11.6007 34.0542 11.6722 34.0868C11.7625 34.1276 11.8001 34.1929 11.813 34.3305L11.8223 34.4144H11.9138H12.0064V34.334C12.0064 34.2372 11.9724 34.1218 11.9255 34.0577C11.8364 33.9329 11.6265 33.8735 11.4225 33.9143Z" fill="black"/>
<path d="M13.724 33.9189C13.6384 33.9434 13.5704 33.9842 13.52 34.0425C13.4414 34.1335 13.4379 34.1556 13.4332 34.5683L13.4297 34.9391H13.5294H13.6302V34.6115C13.6302 34.2419 13.6361 34.1999 13.6994 34.1346C13.7897 34.0402 13.975 34.0402 14.0641 34.1335C14.1145 34.1859 14.1344 34.2466 14.1344 34.3433V34.4144H14.2353H14.3373L14.3303 34.3177C14.3174 34.13 14.24 34.0064 14.0957 33.9423C14.0348 33.9143 14.0043 33.9085 13.9058 33.905C13.826 33.9026 13.7686 33.9073 13.724 33.9189Z" fill="black"/>
<path d="M16.0502 33.9178C15.9282 33.9481 15.8438 34.0122 15.7887 34.1171L15.757 34.1754L15.7535 34.5567L15.75 34.9391H15.8497H15.9505V34.5917C15.9505 34.2815 15.9529 34.2407 15.9728 34.1988C16.015 34.1067 16.1088 34.0577 16.2261 34.067C16.3762 34.0798 16.4536 34.1789 16.4548 34.3585V34.4144H16.5497H16.6459L16.64 34.3002C16.6307 34.1311 16.5779 34.0332 16.4583 33.9633C16.3574 33.905 16.1815 33.8851 16.0502 33.9178Z" fill="black"/>
<path d="M22.09 33.9189C21.9528 33.9574 21.8614 34.046 21.8203 34.1801C21.7992 34.2466 21.7969 34.2885 21.7969 34.5963V34.9402L21.8942 34.9367L21.9904 34.9333L21.9939 34.8027L21.9974 34.6709L22.3457 34.6686L22.6939 34.6651L22.6975 34.5858L22.701 34.5077H22.348H21.9962V34.376C21.9962 34.2279 22.0138 34.1731 22.0771 34.1195C22.1487 34.06 22.2812 34.0484 22.375 34.0938C22.4266 34.1183 22.4735 34.1813 22.4829 34.2396C22.5016 34.3457 22.4899 34.3375 22.5966 34.3293C22.6494 34.3247 22.6928 34.32 22.6951 34.3177C22.6975 34.3165 22.6939 34.2804 22.6881 34.2396C22.667 34.0915 22.5767 33.9772 22.4418 33.9294C22.3656 33.9026 22.1709 33.8968 22.09 33.9189Z" fill="black"/>
<path d="M24.1394 33.9119C24.1371 33.9154 24.1312 33.9422 24.1265 33.9714C24.123 34.0005 24.116 34.032 24.1136 34.0437C24.1078 34.0635 24.1066 34.0623 24.2895 34.0996L24.3599 34.1136L24.2966 34.1451C24.1207 34.2302 24.0292 34.4074 24.0609 34.6033C24.0785 34.7117 24.1113 34.7793 24.1735 34.8388C24.2591 34.9216 24.3306 34.9437 24.5135 34.9449C24.6566 34.9449 24.6707 34.9426 24.7375 34.9122C24.8583 34.8563 24.9404 34.7525 24.9603 34.6289L24.9673 34.5811L24.8946 34.5671C24.8548 34.559 24.8149 34.5497 24.8067 34.5462C24.7961 34.5427 24.7867 34.5566 24.7774 34.5916C24.7434 34.7187 24.6495 34.7875 24.51 34.7875C24.3798 34.7875 24.286 34.714 24.2602 34.5905C24.2204 34.3969 24.3364 34.2279 24.5522 34.1707C24.5944 34.1591 24.6261 34.1614 24.7668 34.1882C24.8594 34.2057 24.9357 34.215 24.9415 34.2092C24.9462 34.2034 24.9544 34.1696 24.9579 34.1346L24.9662 34.0705L24.5546 33.9877C24.3282 33.9422 24.1418 33.9084 24.1394 33.9119Z" fill="black"/>
<path d="M26.5822 33.9189C26.4954 33.9434 26.3969 34.0122 26.3559 34.0775C26.2961 34.1754 26.2891 34.2244 26.2891 34.5975V34.9391H26.3817H26.4743L26.4802 34.6033C26.4837 34.3946 26.4908 34.2524 26.499 34.2256C26.5424 34.088 26.7053 34.0262 26.8531 34.0892C26.8977 34.109 26.9188 34.1265 26.9434 34.1684L26.9751 34.2221L26.9809 34.5777L26.9868 34.9333L27.0841 34.9367L27.1803 34.9402V34.5788C27.1803 34.278 27.1767 34.2081 27.1615 34.1626C27.1228 34.0484 27.0536 33.9784 26.934 33.9306C26.8613 33.9015 26.669 33.8956 26.5822 33.9189Z" fill="black"/>
<path d="M28.8374 33.9189C28.6697 33.9562 28.5606 34.0367 28.4985 34.1684L28.468 34.2337L28.4645 34.587L28.4609 34.9402L28.5583 34.9367L28.6556 34.9332L28.6579 34.6243C28.6591 34.4319 28.665 34.2967 28.6744 34.2664C28.706 34.1521 28.8174 34.0787 28.9769 34.0682C29.1786 34.0542 29.3334 34.1358 29.3604 34.271L29.3674 34.306L29.2396 34.313C29.0789 34.3212 29.0121 34.3445 28.9429 34.4133C28.8268 34.5287 28.8245 34.7502 28.9382 34.8621C28.9992 34.9216 29.0566 34.9426 29.1727 34.9484C29.3615 34.9577 29.4706 34.9029 29.5374 34.7665C29.5656 34.7106 29.5703 34.6826 29.5738 34.5811L29.5785 34.4611H29.6594H29.7403V34.3853V34.3095H29.6594H29.5785L29.5656 34.2559C29.5445 34.1719 29.5011 34.0973 29.4436 34.0448C29.385 33.9912 29.3439 33.9679 29.249 33.9341C29.161 33.9026 28.9441 33.8944 28.8374 33.9189ZM29.3768 34.5637C29.3768 34.6802 29.3557 34.7327 29.297 34.7677C29.256 34.7922 29.1575 34.7968 29.12 34.7758C29.0508 34.7397 29.025 34.6091 29.0719 34.5333C29.1059 34.4797 29.154 34.4622 29.2747 34.4611H29.3768V34.5637Z" fill="black"/>
<path d="M30.1791 33.9178C30.0595 33.9481 29.9704 34.0157 29.9328 34.1031C29.9188 34.1369 29.9176 34.1474 29.9293 34.1521C29.9539 34.1603 30.0935 34.1824 30.0958 34.1789C30.097 34.1766 30.1099 34.1591 30.124 34.1381C30.1603 34.0868 30.2389 34.0588 30.3503 34.0588C30.4969 34.06 30.5719 34.109 30.5719 34.2046C30.5719 34.2535 30.5543 34.2815 30.5098 34.306C30.4769 34.3246 30.4324 34.327 30.1814 34.3305L29.8906 34.3351L29.8941 34.4063L29.8977 34.4785L30.2084 34.4844C30.5391 34.4902 30.5543 34.4937 30.5848 34.5497C30.6059 34.5905 30.6012 34.6686 30.5754 34.7036C30.5367 34.7572 30.457 34.7887 30.3585 34.7898C30.2377 34.7898 30.1779 34.77 30.1134 34.7059L30.0595 34.6523L29.9774 34.6791L29.8941 34.707L29.9082 34.7444C29.9281 34.8027 30.0302 34.8971 30.097 34.9204C30.1744 34.9484 30.4089 34.9589 30.5004 34.9391C30.6294 34.9111 30.722 34.8481 30.7642 34.7607C30.8369 34.6114 30.8029 34.4657 30.6845 34.4098L30.6446 34.3911L30.6892 34.3468C30.7631 34.2733 30.7783 34.1544 30.7267 34.053C30.7033 34.0075 30.6165 33.9446 30.5508 33.9236C30.484 33.9038 30.2483 33.8991 30.1791 33.9178Z" fill="black"/>
<path d="M37.3561 33.9131C37.2552 33.9387 37.1602 34.0099 37.1297 34.0845C37.1075 34.1358 37.1086 34.2442 37.1321 34.2932C37.1555 34.341 37.22 34.3993 37.2763 34.4237C37.2998 34.4331 37.3772 34.4564 37.4475 34.475C37.5191 34.4937 37.5988 34.5194 37.6269 34.5333C37.6867 34.5613 37.7196 34.6161 37.7067 34.6651C37.6692 34.8155 37.3643 34.8318 37.213 34.6931L37.1649 34.6488L37.1098 34.7036C37.0793 34.7339 37.0547 34.7653 37.0547 34.7723C37.0547 34.7922 37.1426 34.8656 37.2036 34.8959C37.2904 34.9402 37.3783 34.9542 37.5097 34.9484C37.6082 34.9437 37.6375 34.9367 37.702 34.9076C37.8228 34.8516 37.892 34.77 37.906 34.6686C37.9201 34.5648 37.8673 34.4681 37.7653 34.4086C37.7395 34.3934 37.6492 34.362 37.566 34.3386C37.342 34.2757 37.3009 34.25 37.3009 34.1719C37.3009 34.109 37.376 34.0647 37.4804 34.0647C37.5648 34.0647 37.6199 34.0821 37.6809 34.1276L37.7325 34.1673L37.7852 34.1241C37.8146 34.1008 37.8392 34.0763 37.8404 34.0693C37.8404 34.046 37.7465 33.9702 37.6785 33.9387C37.6281 33.9154 37.5906 33.9084 37.5073 33.9061C37.4487 33.9038 37.3807 33.9073 37.3561 33.9131Z" fill="black"/>
<path d="M38.4037 33.9201C38.2806 33.9528 38.1915 34.0262 38.141 34.1335C38.1176 34.1836 38.1164 34.2093 38.1129 34.5625L38.1094 34.9391H38.209H38.3099V34.6033C38.3099 34.3958 38.3146 34.2512 38.3228 34.2221C38.358 34.0985 38.5221 34.0309 38.6652 34.081C38.759 34.1148 38.8012 34.1859 38.8106 34.3235L38.8176 34.4144H38.9173H39.017L39.0088 34.3153C38.9959 34.1451 38.9337 34.032 38.8176 33.9633C38.7145 33.9038 38.5362 33.8851 38.4037 33.9201Z" fill="black"/>
<path d="M39.5041 33.9201C39.3692 33.9563 39.2766 34.039 39.2356 34.1615C39.2133 34.2267 39.2109 34.2605 39.2109 34.5858V34.9391H39.3047H39.3986V34.6208C39.3997 34.2827 39.4056 34.2232 39.4525 34.1556C39.5287 34.046 39.741 34.0332 39.836 34.1323C39.8969 34.1953 39.9028 34.2361 39.9028 34.6021V34.9391H40.0036H40.1033L40.0998 34.5625C40.0963 34.1999 40.0951 34.1848 40.0693 34.1288C40.0177 34.018 39.918 33.9423 39.7879 33.9143C39.7046 33.8968 39.5827 33.8991 39.5041 33.9201Z" fill="black"/>
<path d="M8.65625 33.9947V34.0763H8.75592H8.8556V34.3176C8.8556 34.6651 8.87319 34.7444 8.97521 34.8446C9.05612 34.9239 9.12648 34.9449 9.31293 34.9449C9.46185 34.9449 9.47592 34.9426 9.54276 34.9122C9.68114 34.8481 9.74329 34.7525 9.75501 34.5835L9.76205 34.4844H9.66003H9.55918V34.5485C9.55918 34.6581 9.50407 34.7502 9.42198 34.777C9.36921 34.7933 9.25547 34.7933 9.2027 34.7758C9.15228 34.7595 9.08075 34.6802 9.07254 34.6313C9.06785 34.6114 9.06433 34.4424 9.06316 34.257L9.06081 33.9189L8.85912 33.9154L8.65625 33.9131V33.9947Z" fill="black"/>
<path d="M12.1989 33.9294C12.1954 33.9376 12.1942 34.1078 12.1965 34.306L12.2001 34.6651L12.2387 34.7432C12.2821 34.8318 12.3244 34.8715 12.417 34.9146C12.4698 34.9379 12.5038 34.9449 12.6116 34.9484C12.7582 34.9542 12.8391 34.9379 12.9154 34.8866L12.9599 34.8563L13.0572 34.9204C13.1112 34.9566 13.1604 34.9857 13.1663 34.9857C13.1757 34.9857 13.2496 34.8808 13.2496 34.8656C13.2496 34.8621 13.2097 34.8342 13.1593 34.8027C13.11 34.7724 13.0655 34.7432 13.0596 34.7397C13.0537 34.7362 13.0584 34.7129 13.0701 34.6873C13.0877 34.6476 13.0913 34.594 13.0948 34.2769L13.0995 33.9119L13.001 33.9154L12.9036 33.9189L12.8978 34.2745L12.8919 34.6301L12.8602 34.6849C12.8169 34.7572 12.7535 34.7875 12.648 34.7875C12.5518 34.7875 12.5049 34.7689 12.4557 34.7141C12.4006 34.6511 12.3924 34.5917 12.3935 34.2349L12.3947 33.9189L12.2997 33.9154C12.227 33.9131 12.2036 33.9154 12.1989 33.9294Z" fill="black"/>
<path d="M14.5191 34.2944C14.5227 34.6651 14.5238 34.6791 14.5496 34.7351C14.586 34.8143 14.6458 34.8726 14.7326 34.9123C14.7994 34.9426 14.8135 34.9449 14.9565 34.9449C15.116 34.9449 15.1711 34.9321 15.245 34.8796L15.2778 34.8563L15.3775 34.9228C15.4315 34.9589 15.4819 34.9846 15.4889 34.9811C15.5018 34.9729 15.5722 34.875 15.5722 34.8656C15.5722 34.8633 15.5276 34.833 15.4725 34.8004C15.4174 34.7665 15.3728 34.7351 15.3728 34.7316C15.3728 34.7269 15.3822 34.7001 15.3928 34.6709C15.4092 34.6266 15.4127 34.566 15.4127 34.2687L15.4139 33.919L15.3177 33.9155L15.2216 33.912L15.218 34.2652C15.2145 34.6057 15.2133 34.6208 15.1887 34.6674C15.1735 34.6943 15.143 34.7304 15.1195 34.7491C15.0832 34.7759 15.0621 34.7817 14.9894 34.7864C14.8463 34.7934 14.7666 34.7479 14.729 34.6371C14.7208 34.6115 14.7161 34.4797 14.7161 34.2559V33.9131H14.6153H14.5156L14.5191 34.2944Z" fill="black"/>
<path d="M16.8317 33.9294C16.8282 33.9388 16.827 34.1055 16.8293 34.3002C16.834 34.6336 16.8352 34.6569 16.861 34.7199C16.8974 34.8132 16.9888 34.8959 17.0932 34.9274C17.2409 34.9729 17.4497 34.9542 17.554 34.8855L17.5986 34.8563L17.6959 34.9204C17.7499 34.9566 17.7968 34.9857 17.8003 34.9857C17.8085 34.9857 17.8976 34.868 17.8918 34.8645C17.8894 34.8621 17.8448 34.833 17.7921 34.8003C17.7381 34.7665 17.6948 34.7327 17.6948 34.7257C17.6948 34.7176 17.703 34.6861 17.7123 34.6546C17.7264 34.6091 17.7299 34.5252 17.7299 34.2547V33.9131H17.6373H17.5447L17.54 34.2594C17.5353 34.622 17.5341 34.6301 17.479 34.7106C17.4145 34.805 17.2022 34.8167 17.1037 34.7304C17.0463 34.6803 17.0439 34.6628 17.0381 34.2804L17.0322 33.9189L16.9349 33.9154C16.8575 33.9131 16.8376 33.9154 16.8317 33.9294Z" fill="black"/>
<path d="M17.9768 33.9201C17.9639 33.9329 17.9674 34.3293 17.9814 34.4133C18.0061 34.5707 18.0917 34.6604 18.2476 34.6931C18.3708 34.7187 18.5502 34.7001 18.6217 34.6523C18.6358 34.6441 18.651 34.636 18.6534 34.636C18.6569 34.636 18.6616 34.7024 18.6627 34.784L18.6663 34.9333L18.7636 34.9367L18.8597 34.9402V34.5427V34.1451L18.7636 34.1486L18.6663 34.1521L18.6604 34.3142L18.6545 34.4774L18.6018 34.5042C18.4962 34.5578 18.3461 34.5613 18.2605 34.5112C18.2406 34.4995 18.2136 34.4716 18.1996 34.4494C18.1761 34.4121 18.1738 34.39 18.1679 34.1638L18.162 33.9189L18.0741 33.9154C18.0248 33.9143 17.9814 33.9154 17.9768 33.9201Z" fill="black"/>
<path d="M19.0938 34.278C19.0938 34.7187 19.0961 34.7339 19.1981 34.8353C19.2544 34.8901 19.279 34.9065 19.3447 34.9263C19.4971 34.9729 19.7199 34.9519 19.8196 34.882L19.8548 34.8563L19.9439 34.9158C19.992 34.9484 20.0389 34.9776 20.0483 34.9811C20.0577 34.9846 20.0811 34.9636 20.1069 34.9274C20.1315 34.8936 20.1491 34.8656 20.1468 34.8645C20.1444 34.8621 20.0999 34.833 20.0471 34.8004C19.9932 34.7665 19.9498 34.7351 19.9498 34.7316C19.9498 34.7269 19.958 34.6978 19.9674 34.6663C19.9814 34.6208 19.985 34.5357 19.985 34.2606V33.9131H19.8923H19.7997L19.795 34.2594C19.7903 34.6266 19.7868 34.6593 19.7293 34.7211C19.6531 34.8062 19.4479 34.8108 19.3599 34.7316C19.3013 34.6791 19.299 34.6639 19.2931 34.2804L19.2872 33.919L19.1911 33.9155L19.0938 33.912V34.278Z" fill="black"/>
<path d="M20.1719 33.9947V34.0763H20.2762H20.3818L20.3853 34.3818L20.3888 34.6884L20.4205 34.7479C20.4944 34.8866 20.6222 34.9507 20.8286 34.9507C20.9822 34.9507 21.0748 34.9228 21.1545 34.8516C21.2366 34.7782 21.2636 34.7164 21.2718 34.5882L21.2777 34.4844H21.1757H21.0748V34.5543C21.0748 34.6371 21.056 34.6873 21.0091 34.7316C20.9622 34.7747 20.9212 34.7875 20.8274 34.7875C20.7172 34.7875 20.6503 34.7537 20.6069 34.6768C20.5917 34.6476 20.587 34.587 20.5823 34.2804L20.5764 33.9189L20.3747 33.9155L20.1719 33.9131V33.9947Z" fill="black"/>
<path d="M23.542 33.9201C23.5373 33.9248 23.5338 33.9854 23.5338 34.0554V34.1813H23.4142C23.1187 34.1813 22.9639 34.2547 22.9006 34.4238C22.8724 34.4996 22.8666 34.6243 22.8877 34.7024C22.917 34.8085 23.0366 34.9123 23.1609 34.9379C23.2559 34.9589 23.3931 34.9531 23.4822 34.9263C23.5479 34.9065 23.5725 34.8901 23.6276 34.8365C23.7121 34.7514 23.7308 34.6943 23.7414 34.4949L23.7484 34.3445H23.8352H23.9208V34.2629V34.1813H23.8328H23.7461L23.7425 34.0495L23.739 33.919L23.6452 33.9155C23.5924 33.9143 23.5467 33.9155 23.542 33.9201ZM23.5315 34.4984C23.5268 34.6709 23.515 34.7083 23.4494 34.7549C23.4189 34.7759 23.3919 34.7829 23.3204 34.7864C23.1633 34.7934 23.0823 34.7316 23.0683 34.5952C23.0565 34.4786 23.1128 34.3876 23.2172 34.3585C23.2395 34.3515 23.3204 34.3457 23.3966 34.3457L23.5362 34.3445L23.5315 34.4984Z" fill="black"/>
<path d="M25.1562 34.1673C25.1562 34.4774 25.1656 34.5217 25.2489 34.6021C25.3181 34.6686 25.3884 34.6943 25.5209 34.7024C25.6312 34.7094 25.7238 34.6943 25.7871 34.6581C25.8082 34.6465 25.8305 34.636 25.8376 34.636C25.8434 34.636 25.8481 34.7001 25.8481 34.7875V34.9391H25.9478H26.0475V34.5427V34.1463H25.9478H25.8493L25.8458 34.306L25.8422 34.4657L25.8024 34.4926C25.7484 34.5287 25.6816 34.5462 25.5901 34.545C25.5057 34.545 25.4576 34.531 25.4166 34.4926C25.3544 34.4354 25.3497 34.4133 25.3462 34.1545L25.3415 33.9131H25.2489H25.1562V34.1673Z" fill="black"/>
<path d="M27.4609 34.4261V34.9391H27.5606H27.6603V34.6243V34.3107L27.7048 34.3037C27.7283 34.3002 27.7576 34.2944 27.7693 34.292C27.8104 34.2839 27.8725 34.3107 27.8936 34.3457C27.9054 34.3643 27.9241 34.4238 27.9359 34.4762C27.9675 34.6255 28.0074 34.6849 28.0965 34.7234C28.1469 34.7444 28.2536 34.7467 28.2654 34.7281C28.2701 34.7199 28.2771 34.6814 28.2806 34.6406C28.2888 34.5683 28.2876 34.566 28.2618 34.566C28.2196 34.566 28.1587 34.5369 28.1329 34.5042C28.12 34.4867 28.0977 34.4273 28.0836 34.3713C28.0402 34.1918 27.9828 34.1416 27.8245 34.1405C27.7764 34.1405 27.7189 34.144 27.699 34.1486L27.6603 34.1568V34.0355V33.9131H27.5606H27.4609V34.4261Z" fill="black"/>
<path d="M31.0114 33.9294C31.0079 33.9388 31.0067 34.1078 31.009 34.306L31.0126 34.6651L31.0512 34.7432C31.0946 34.8318 31.1369 34.8715 31.2295 34.9146C31.2823 34.9379 31.3163 34.9449 31.4241 34.9484C31.5707 34.9542 31.6516 34.9379 31.7279 34.8866L31.7724 34.8563L31.8697 34.9204C31.9237 34.9566 31.9729 34.9857 31.9788 34.9857C31.9882 34.9857 32.0621 34.8808 32.0621 34.8668C32.0621 34.8633 32.021 34.8342 31.9718 34.8038C31.9225 34.7724 31.8768 34.7432 31.8721 34.7397C31.8662 34.7362 31.8709 34.7129 31.8826 34.6873C31.9014 34.6464 31.9038 34.601 31.9038 34.2804V33.9189H31.8099H31.7161L31.7103 34.2745L31.7044 34.6301L31.6727 34.6849C31.6294 34.7572 31.566 34.7875 31.4605 34.7875C31.3643 34.7875 31.3174 34.7689 31.2682 34.7141C31.2142 34.6523 31.206 34.5928 31.206 34.2337V33.9131H31.1122C31.0419 33.9131 31.0161 33.9178 31.0114 33.9294Z" fill="black"/>
<path d="M32.0941 33.9212C32.0895 33.9247 32.0859 33.9621 32.0859 34.0029V34.0763H32.1915H32.297V34.3328C32.297 34.5951 32.3064 34.6791 32.3451 34.7548C32.3779 34.819 32.4436 34.8796 32.5186 34.9146C32.5796 34.9426 32.596 34.9449 32.7485 34.9449C32.9009 34.9449 32.9173 34.9426 32.9771 34.9146C33.0616 34.8749 33.1108 34.833 33.1495 34.7665C33.1777 34.7199 33.1824 34.6966 33.1859 34.5986L33.1906 34.4844H33.0956H33.0006V34.545C32.9983 34.7059 32.9162 34.7887 32.7555 34.7887C32.6594 34.7887 32.6078 34.77 32.5585 34.714C32.5046 34.6523 32.4964 34.5928 32.4964 34.2337V33.9131H32.2994C32.1903 33.9131 32.0977 33.9166 32.0941 33.9212Z" fill="black"/>
<path d="M33.6679 33.9306C33.6633 33.9399 33.6633 34.06 33.6656 34.1964C33.6691 34.4331 33.6715 34.4459 33.6996 34.5077C33.7383 34.5882 33.7817 34.6313 33.8603 34.6674C33.9775 34.7222 34.2226 34.7141 34.3164 34.6534C34.3305 34.6441 34.3457 34.636 34.3481 34.636C34.3516 34.636 34.3563 34.7024 34.3575 34.784L34.361 34.9333L34.4583 34.9367L34.5545 34.9402V34.5427V34.1451L34.4583 34.1486L34.361 34.1521L34.3551 34.3142L34.3493 34.4774L34.2965 34.5042C34.1909 34.5578 34.0408 34.5613 33.9552 34.5112C33.9353 34.4995 33.9083 34.4716 33.8943 34.4494C33.8696 34.4109 33.8685 34.3911 33.865 34.1603L33.8614 33.9131H33.7676C33.6949 33.9131 33.6726 33.9166 33.6679 33.9306Z" fill="black"/>
<path d="M34.8047 34.2489C34.8047 34.4552 34.8094 34.6114 34.8176 34.6523C34.8446 34.7828 34.9431 34.8924 35.0662 34.9297C35.0943 34.9391 35.1776 34.9449 35.262 34.9449C35.4051 34.9449 35.4121 34.9437 35.4872 34.9064C35.5798 34.8609 35.6384 34.798 35.6724 34.7094C35.7018 34.6313 35.7029 34.5928 35.676 34.5846C35.6337 34.573 35.5177 34.552 35.5153 34.5566C35.5141 34.5578 35.5071 34.5858 35.4989 34.6173C35.4684 34.7362 35.3969 34.7863 35.2585 34.7875C35.1623 34.7875 35.1154 34.77 35.0662 34.714C35.0205 34.6616 35.004 34.5893 35.004 34.4319V34.3095H35.35H35.6959V34.2279V34.1463H35.35H35.004V34.0297V33.9131H34.9044H34.8047V34.2489Z" fill="black"/>
<path d="M35.8125 33.9947V34.0763H35.918H36.0236V34.362C36.0236 34.6231 36.0259 34.6523 36.0482 34.7141C36.0857 34.8132 36.1725 34.8948 36.2757 34.9262C36.3812 34.9589 36.5548 34.9601 36.6556 34.9286C36.8233 34.8773 36.9019 34.7724 36.9124 34.587L36.9183 34.4844H36.8163H36.7154V34.5567C36.7154 34.6464 36.6849 34.7129 36.6251 34.7525C36.59 34.777 36.5653 34.7828 36.4868 34.7852C36.3883 34.7898 36.3425 34.777 36.2886 34.7304C36.2311 34.6802 36.2288 34.6628 36.2229 34.2804L36.2171 33.9189L36.0154 33.9154L35.8125 33.9131V33.9947Z" fill="black"/>
<path d="M40.2422 33.9948V34.0764H40.3466H40.4521L40.4556 34.376C40.4591 34.6546 40.4615 34.6803 40.4838 34.7304C40.5224 34.812 40.5846 34.8738 40.6667 34.91C40.73 34.9391 40.7593 34.9438 40.8719 34.9484C40.9809 34.9531 41.0161 34.9496 41.083 34.9286C41.1862 34.8983 41.2589 34.8423 41.3034 34.7631C41.3327 34.7094 41.3386 34.6838 41.3421 34.5917L41.3468 34.4844H41.2542H41.1604L41.1533 34.5614C41.1381 34.7176 41.0595 34.7899 40.9012 34.7887C40.7804 34.7887 40.7124 34.7491 40.669 34.6535C40.6632 34.6406 40.6561 34.4704 40.6526 34.2746L40.6467 33.919L40.4451 33.9155L40.2422 33.9131V33.9948Z" fill="black"/>
</svg>
