<svg width="50" height="50" viewBox="0 0 50 50" fill="none" xmlns="http://www.w3.org/2000/svg">
<circle cx="25" cy="25" r="25" fill="white"/>
<g clip-path="url(#clip0_934_1615)">
<path d="M13.921 13.1555C12.5901 13.5704 11.6049 14.5037 11.2593 15.6617C11.0519 16.3703 11 17.9432 11 24.3037C11 28.5901 11.0864 32.4099 11.1728 32.7728C11.2593 33.1531 11.5358 33.7753 11.8123 34.1555C12.2444 34.795 12.8667 35.158 18.0864 37.8025C23.8765 40.7234 23.8765 40.7234 25.0519 40.7407H26.2272L31.8617 37.8889C35.2839 36.1605 37.721 34.8123 38.0667 34.4666C39.1556 33.4123 39.1901 33.0321 39.1383 23.958C39.0864 15.9555 39.0864 15.8345 38.7062 15.1259C38.1704 14.158 37.2198 13.3975 36.2 13.1728C35.2148 12.9654 14.6296 12.9481 13.921 13.1555ZM28.5432 15.437C30.0642 15.9037 30.8765 16.6815 31.7235 18.4617C32.121 19.2741 32.4321 19.9654 32.4321 20C32.4321 20.0518 32.1728 20.1901 31.8617 20.3284C31.5506 20.4494 30.6346 21.037 29.8568 21.6074C28.4222 22.6617 27.8173 22.9383 26.1235 23.3704C24.6198 23.7679 23.963 23.7852 23.963 23.4741C23.963 22.9728 24.8272 21.4691 25.5012 20.795C26.5037 19.7926 27.6099 19.3259 29.2173 19.2568L30.5827 19.1876L29.2519 18.6C27.4889 17.8395 26.7284 17.2 26.037 15.921L25.4667 14.8494L26.4864 14.9876C27.0395 15.0568 27.9728 15.2469 28.5432 15.437ZM32.8469 16.5778C33.1407 16.8197 33.3654 17.0963 33.3481 17.1827C33.3136 17.2518 33.3827 17.321 33.4691 17.321C33.6938 17.321 33.6938 18.2716 33.4519 18.7555C33.279 19.1358 33.279 19.1358 33.5556 18.7901C33.7457 18.5654 33.8148 18.1852 33.7802 17.6839C33.7457 17.1827 33.7975 16.8889 33.9531 16.8543C34.2296 16.7506 34.2296 18.1333 33.9358 18.6345C33.6765 19.0839 32.8296 20.0864 32.7086 20.0864C32.6741 20.0864 32.7086 19.8099 32.8123 19.4642C32.9506 18.9111 32.916 18.7037 32.4321 17.8049C31.879 16.716 31.8617 16.3703 32.3975 16.8543C32.5704 17.0271 32.8296 17.1481 32.9679 17.1308C33.158 17.1308 33.158 17.0963 32.9506 17.0271C32.6049 16.9062 32.0864 16.4395 32.0864 16.2494C32.0864 16.0074 32.2765 16.0938 32.8469 16.5778ZM33.9877 21.1234C35.2494 22.3506 35.958 23.9234 36.0272 25.6691C36.0963 26.9136 36.0617 27.121 35.5259 28.1753C35.163 28.9358 34.5753 29.7136 33.8494 30.4395C33.0543 31.2173 32.6222 31.8222 32.3284 32.5481C31.7926 33.8444 31.7926 34.1728 32.2765 33.9136C32.8642 33.5852 32.916 33.9136 32.3457 34.3629C31.7407 34.8469 31.516 34.8815 31.2049 34.5012C31.0148 34.2765 31.0321 34.0518 31.3605 33.1704C31.8444 31.8222 31.8444 31.8049 31.2741 31.9432C30.6 32.0987 30.4963 32.1852 30.6864 32.4099C30.8938 32.6691 30.5136 34.6395 30.237 34.7259C30.1333 34.7605 29.9432 34.6395 29.8395 34.4494C29.6667 34.1037 29.6321 34.1037 29.0617 34.3802C28.5778 34.6049 28.4049 34.6222 28.2494 34.4666C27.8346 34.0518 28.5951 33.0839 29.9086 32.3234C32.0864 31.0617 32.3975 30.8025 32.8642 29.8864C33.3654 28.8494 33.4 28.1407 33.0025 27.1383C32.7432 26.5333 32.7086 26.0148 32.7605 24.4074C32.7951 23.3185 32.8296 21.9358 32.8469 21.3308C32.8469 20.7432 32.916 20.2592 32.9852 20.2592C33.0543 20.2592 33.5037 20.6395 33.9877 21.1234ZM23.6173 24.1481C24.084 24.3901 24.1358 24.4938 24.1358 25.2889C24.1358 26.1358 24.1185 26.1704 23.7556 26.0494C23.116 25.842 22.3556 25.8592 22.2864 26.0839C22.2519 26.1876 22.6494 26.7062 23.2025 27.2247C24.1358 28.1062 24.1877 28.2099 24.2568 29.0913C24.3432 30.1457 23.9802 30.9062 23.1852 31.4247C22.6148 31.7876 21.3185 31.8395 20.558 31.5111C20.0049 31.2864 19.9877 31.2518 19.9877 30.1802V29.0741L20.558 29.4197C21.2148 29.8345 21.5951 29.8518 21.8889 29.5062C22.0444 29.316 21.958 29.1086 21.3358 28.4345C20.1951 27.2074 19.9877 26.8271 19.9877 26.0321C19.9877 25.237 20.5753 24.3383 21.2667 24.0617C21.8543 23.8197 23.0815 23.8716 23.6173 24.1481ZM30.6864 24.079C31.2049 24.2691 31.2222 24.3037 31.2222 25.2889V26.3259L30.7037 26.0494C29.3556 25.358 29.0617 26.1012 30.2716 27.121C31.2914 27.9679 31.7062 28.9876 31.4296 29.921C30.9111 31.5975 29.2346 32.237 27.558 31.3728C27.1086 31.1654 27.0741 31.0617 27.0741 30.1111V29.0741L27.8346 29.4543C28.6296 29.8345 29.1481 29.7827 29.1481 29.3333C29.1481 29.195 28.7333 28.6074 28.2148 28.0543C27.1259 26.8617 26.9012 26.1876 27.316 25.2197C27.7827 24.079 29.2519 23.5778 30.6864 24.079ZM26.7284 27.8642V31.6839L25.6568 31.6321L24.5679 31.5802L24.516 27.8123L24.4815 24.0617H25.6049H26.7284V27.8642ZM18.6914 31.5975C18.6914 32.2543 18.6395 32.8592 18.5877 32.9629C18.5185 33.0494 18.3802 33.4123 18.2765 33.7753C18.1556 34.121 17.9481 34.4494 17.8099 34.5012C17.4815 34.6222 16.9457 33.758 16.5827 32.479L16.3062 31.4938L15.3383 32.9975C14.716 33.9827 14.3531 34.4148 14.3185 34.2074C14.2667 33.9308 16.0469 30.9062 16.3926 30.6987C16.7037 30.5086 17.0148 31.0099 17.4123 32.4099C17.7926 33.7407 17.8272 33.7926 17.9309 33.2568C18 32.9457 17.9654 32.4271 17.879 32.116C17.7407 31.7012 17.7753 31.4074 17.9827 30.9062C18.3975 29.9037 18.6914 30.1802 18.6914 31.5975ZM23.237 32.4444C23.2198 33.0321 23.1506 33.2395 22.8914 33.3259C22.7185 33.3778 22.5802 33.5679 22.5802 33.758C22.5802 34.0345 22.6667 34.0864 22.9259 34C23.116 33.9481 23.2716 33.9654 23.2716 34.0518C23.2716 34.3629 22.7704 34.6222 22.2864 34.5704C21.8543 34.5185 21.8025 34.4494 21.8025 33.8271C21.7852 33.1876 21.9407 32.8765 22.7704 31.8741C23.0988 31.4765 23.237 31.6666 23.237 32.4444ZM21.2321 32.3926C21.4741 32.5827 21.4914 32.7383 21.3012 33.637C21.0765 34.7432 20.8173 35.0025 20.4889 34.4666C20.2815 34.1383 20.2469 34.1383 19.6938 34.3975C18.3284 35.0543 18.6914 33.3605 20.0741 32.5827C20.8864 32.116 20.8864 32.116 21.2321 32.3926ZM24.9136 32.358C24.9654 32.4444 24.8963 32.7555 24.7407 33.0666C24.3259 33.8617 24.5333 33.8444 25.0691 33.0494C25.3111 32.6691 25.6049 32.358 25.6914 32.358C25.9333 32.358 25.8988 34.1555 25.6568 34.3975C25.3284 34.7259 25 34.6395 25 34.2247V33.8617L24.6025 34.2247C24.0494 34.7432 23.6173 34.7259 23.6173 34.1901C23.6173 33.1185 24.5506 31.7876 24.9136 32.358ZM28.1802 32.8765C28.1802 33.3432 28.0938 33.4987 27.8346 33.5333C27.6444 33.5679 27.3506 33.8099 27.1778 34.0864C27.0222 34.3802 26.7284 34.6049 26.5383 34.6049C26.158 34.6049 26.1235 34.3975 26.4173 33.9136C26.5901 33.637 26.5901 33.4987 26.4346 33.2222C26.2444 32.9457 26.2617 32.8592 26.5383 32.7037C27.0568 32.4444 27.2469 32.4963 27.2642 32.9111C27.2815 33.2741 27.2988 33.2741 27.3679 32.9629C27.5235 32.2716 27.5926 32.1679 27.8864 32.2197C28.0938 32.2543 28.1802 32.4444 28.1802 32.8765Z" fill="black"/>
<path d="M29.4947 33.2395C28.907 33.8271 28.9243 34.1728 29.512 33.637C29.8749 33.3086 30.2725 32.7037 30.1169 32.7037C30.0823 32.7037 29.7885 32.9456 29.4947 33.2395Z" fill="black"/>
<path d="M20.1277 33.2222C19.5573 33.8098 19.5919 34.1728 20.1795 33.637C20.5771 33.2913 20.94 32.7037 20.7672 32.7037C20.6981 32.7037 20.4215 32.9456 20.1277 33.2222Z" fill="black"/>
</g>
<defs>
<clipPath id="clip0_934_1615">
<rect width="28.3457" height="28" fill="white" transform="translate(11 13)"/>
</clipPath>
</defs>
</svg>
