<svg width="50" height="50" viewBox="0 0 50 50" fill="none" xmlns="http://www.w3.org/2000/svg">
<rect width="50" height="50" rx="25" fill="white"/>
<g clip-path="url(#clip0_207_6443)">
<path d="M9 25V41H25H41V25V9H25H9V25ZM14.5859 21.3395C15.3328 21.5272 15.8797 22.106 16 22.8314C16.0234 22.9687 16.0297 23.2951 16.0109 23.4024L15.9984 23.4781H14.5297C13.2219 23.4781 13.0625 23.4812 13.0625 23.5017C13.0625 23.5569 13.1641 23.7872 13.2359 23.896C13.375 24.1058 13.575 24.2587 13.8203 24.3408C13.9328 24.3786 13.9672 24.3833 14.1797 24.3833C14.3734 24.3849 14.4359 24.3786 14.5391 24.3502C14.7109 24.3029 14.8766 24.2319 14.9844 24.1594L15.075 24.0979L15.3141 24.3392C15.4719 24.4985 15.5484 24.5868 15.5375 24.5978C15.5 24.6357 15.1781 24.8202 15.0672 24.8659C14.7688 24.9921 14.5188 25.0394 14.1625 25.0394C13.7188 25.041 13.425 24.9527 13.0641 24.7114C12.675 24.4527 12.3703 23.9796 12.2891 23.5112C12.2594 23.3409 12.2594 22.9986 12.2891 22.8283C12.4219 22.0618 13.0547 21.4388 13.8359 21.3079C14.0313 21.2748 14.3922 21.2906 14.5859 21.3395ZM18.7281 21.3016C19.1109 21.3505 19.4719 21.513 19.7344 21.7558L19.8203 21.8347L19.6562 22.0066C19.5656 22.0997 19.4531 22.2179 19.4063 22.2668C19.3609 22.3173 19.3156 22.3583 19.3078 22.3583C19.3 22.3583 19.2438 22.3126 19.1828 22.2542C19.0484 22.1312 18.8781 22.0397 18.7094 22.0034C18.5516 21.9672 18.3141 21.9766 18.1719 22.0255C17.8063 22.1517 17.5141 22.475 17.4125 22.8709C17.3719 23.0349 17.375 23.3204 17.4203 23.4844C17.5328 23.8913 17.8156 24.1957 18.1875 24.3108C18.4109 24.3802 18.6328 24.3691 18.8641 24.2792C18.9969 24.2288 19.2 24.0853 19.2812 23.9859L19.3281 23.9275L19.5953 24.1972L19.8625 24.4669L19.7828 24.5426C19.5375 24.7745 19.2594 24.918 18.8938 25.0016C18.7219 25.0394 18.6938 25.0426 18.4141 25.0347C18.1016 25.0268 18.0031 25.0095 17.7812 24.9243C16.9578 24.6104 16.4844 23.7635 16.6266 22.8519C16.6844 22.4734 16.8719 22.1044 17.1469 21.8284C17.5625 21.4104 18.1203 21.2243 18.7281 21.3016ZM22.4984 21.3095C23.0438 21.3868 23.4953 21.6675 23.7922 22.1138C23.9172 22.2999 23.9422 22.3615 24.3016 23.3598C24.3484 23.4891 24.4828 23.8582 24.6016 24.1799C24.7188 24.5 24.8422 24.8376 24.875 24.929C24.9078 25.0205 24.9844 25.2334 25.0469 25.4022C25.1094 25.5709 25.1625 25.7223 25.1672 25.7365C25.1719 25.7523 25.1797 25.7649 25.1859 25.7649C25.1969 25.7649 25.2719 25.5709 25.3609 25.3154C25.3844 25.246 25.4797 24.9827 25.5703 24.7319C25.6625 24.4795 25.8203 24.0443 25.9219 23.7619C26.0234 23.4796 26.1828 23.0428 26.2734 22.792C26.3656 22.5397 26.4531 22.2984 26.4688 22.2558C26.5844 21.9262 26.6344 21.7826 26.7172 21.5619L26.8109 21.3095L27.2172 21.3048C27.4422 21.3032 27.625 21.3048 27.625 21.3095C27.625 21.319 27.5516 21.5145 27.0828 22.7605C27.0016 22.9765 26.8406 23.4071 26.7266 23.7146C26.6109 24.0222 26.4734 24.3881 26.4219 24.5269C26.3688 24.6656 26.3094 24.8218 26.2891 24.8738C26.2188 25.0647 26.0594 25.4858 25.875 25.9778C25.7703 26.2554 25.6625 26.544 25.6359 26.6197L25.5875 26.7569L25.2172 26.7617C25.0141 26.7648 24.8375 26.7648 24.825 26.7617C24.8109 26.7585 24.7813 26.7033 24.7531 26.6276C24.7078 26.5046 24.4281 25.7728 23.9547 24.5426C23.8359 24.2304 23.6203 23.6689 23.4766 23.2967C23.3344 22.9229 23.1969 22.5823 23.1719 22.5397C23.0281 22.2858 22.7547 22.0713 22.4922 22.0034C22.3922 21.9782 22.1781 21.9688 22.0609 21.9877L21.9906 21.9987L21.7281 21.7306C21.5844 21.5824 21.4656 21.4562 21.4641 21.4483C21.4625 21.4183 21.7734 21.3284 21.9609 21.3032C22.1328 21.2811 22.3125 21.2843 22.4984 21.3095ZM29.1875 21.7117V22.1217H28.7813H28.375V21.7117V21.3016H28.7813H29.1875V21.7117ZM30.9375 23.5869C30.9375 25.2303 30.9422 25.8942 30.9547 25.9494C30.9797 26.0614 31.0406 26.1403 31.1391 26.1923C31.2359 26.2444 31.3531 26.2522 31.4734 26.216L31.5469 26.1939V26.4904V26.7869L31.4734 26.8105C31.175 26.9052 30.8313 26.8862 30.5781 26.7632C30.4594 26.7049 30.3078 26.5487 30.25 26.4241C30.1406 26.1876 30.15 26.3958 30.1438 23.7383C30.1422 22.4214 30.1438 21.3332 30.1469 21.3221C30.1531 21.3064 30.2422 21.3016 30.5469 21.3016H30.9375V23.5869ZM32.9219 23.5932C32.9219 26.074 32.9188 25.981 33.0031 26.0993C33.0828 26.2144 33.2938 26.268 33.4578 26.2175L33.5313 26.1939V26.492V26.7885L33.4266 26.8232C33.2609 26.8768 32.9563 26.8831 32.7719 26.8374C32.5844 26.79 32.4969 26.7412 32.3797 26.6229C32.275 26.5188 32.2125 26.4036 32.1609 26.2302C32.1359 26.1418 32.1328 25.9762 32.1281 23.7178L32.1234 21.3016H32.5234H32.9219V23.5932ZM21.3516 22.4577C21.2031 22.6722 21.1359 22.8866 21.1359 23.1548C21.1344 23.4087 21.1828 23.5964 21.3109 23.8172C21.3844 23.9465 21.5781 24.1373 21.7078 24.2114C21.8859 24.3108 22.0281 24.3502 22.2188 24.3502C22.4875 24.3518 22.6797 24.284 22.8953 24.1105C22.9625 24.0553 23.0219 24.0143 23.025 24.019C23.0344 24.0269 23.2969 24.7098 23.2969 24.724C23.2969 24.7429 23.0703 24.8644 22.9453 24.9117C22.7141 25.0016 22.5031 25.0394 22.2328 25.0394C21.9656 25.0394 21.8641 25.0268 21.6609 24.9669C20.9891 24.7697 20.4875 24.1925 20.375 23.4844C20.35 23.3251 20.3547 22.9497 20.3828 22.8094C20.4547 22.4592 20.6094 22.1391 20.8203 21.9025L20.8969 21.8173L21.1594 22.087L21.4219 22.3583L21.3516 22.4577ZM29.1719 24.9054V26.8058H28.7813H28.3906V24.9054V23.0049H28.7813H29.1719V24.9054ZM36.2422 23.1548C37.0125 23.3188 37.5797 23.8881 37.7219 24.6373C37.7437 24.7524 37.75 25.2303 37.7313 25.2792C37.7203 25.306 37.6359 25.3075 36.25 25.3075C35.4422 25.3075 34.7812 25.3138 34.7812 25.3202C34.7812 25.3517 34.8438 25.5126 34.8953 25.6151C35.0891 25.9983 35.4594 26.2223 35.8984 26.2223C36.2078 26.2223 36.5328 26.1261 36.7516 25.9684C36.775 25.9526 36.7969 25.9384 36.8016 25.9384C36.8109 25.9384 37.2563 26.3942 37.2625 26.41C37.2688 26.4305 37.0594 26.5614 36.8828 26.6481C36.5828 26.7964 36.3375 26.8531 35.95 26.8642C35.7422 26.8705 35.6578 26.8673 35.5359 26.8452C35.1547 26.7758 34.8078 26.5945 34.5344 26.3185C33.8828 25.6671 33.8078 24.6136 34.3578 23.8771C34.6609 23.4702 35.1297 23.1958 35.6406 23.1264C35.7516 23.1106 36.1203 23.1279 36.2422 23.1548ZM13.2063 25.8311C13.2953 25.88 13.3688 25.981 13.3922 26.0866C13.4219 26.2239 13.425 26.2223 13.0672 26.2223H12.7641L12.7734 26.257C12.7891 26.3137 12.8969 26.4084 12.9641 26.4257C13.0313 26.4447 13.1016 26.4305 13.1672 26.3879C13.2219 26.35 13.2719 26.3626 13.2781 26.4147C13.2828 26.4494 13.2719 26.4636 13.2141 26.4983C13.0312 26.6055 12.7938 26.5377 12.6875 26.3484C12.6344 26.2522 12.6328 26.0882 12.6828 25.992C12.7266 25.91 12.8281 25.8201 12.9031 25.798C12.9922 25.7728 13.1297 25.7886 13.2063 25.8311ZM14.4125 25.7901C14.4266 25.7949 14.4375 25.8138 14.4375 25.8296C14.4375 25.8674 14.4391 25.8674 14.5047 25.828C14.6375 25.7491 14.8109 25.7744 14.9234 25.8895C15.0172 25.9826 15.0312 26.0362 15.0312 26.3027C15.0312 26.5314 15.0203 26.5677 14.9547 26.5456C14.9266 26.5377 14.925 26.5188 14.9188 26.3043C14.9125 26.0409 14.8984 25.9967 14.8031 25.9368C14.6953 25.8706 14.5563 25.9005 14.4813 26.0046C14.4484 26.0519 14.4453 26.0772 14.4375 26.2917C14.4313 26.4888 14.425 26.5298 14.4031 26.5424C14.3844 26.555 14.3703 26.5535 14.3531 26.5393C14.3313 26.5204 14.3281 26.4683 14.3281 26.175C14.3281 25.9857 14.3328 25.8201 14.3375 25.8059C14.3469 25.7791 14.3719 25.7744 14.4125 25.7901ZM16.5078 25.8248C16.6188 25.8816 16.6891 25.981 16.7109 26.1087C16.7297 26.2207 16.7266 26.2223 16.3813 26.2223C16.2141 26.2223 16.0781 26.227 16.0781 26.2317C16.0781 26.2491 16.1141 26.3106 16.1469 26.3453C16.2266 26.4352 16.3594 26.4557 16.4656 26.3958C16.5422 26.3516 16.5844 26.3579 16.5906 26.4147C16.5953 26.4494 16.5844 26.4636 16.5203 26.5014C16.4578 26.5377 16.4281 26.5456 16.3359 26.5456C16.2453 26.5456 16.2141 26.5377 16.1531 26.5014C15.9188 26.3626 15.8891 26.0456 16.0922 25.8737C16.125 25.8453 16.1766 25.8122 16.2047 25.8012C16.2781 25.7728 16.4328 25.7854 16.5078 25.8248ZM17.7469 25.8311C17.7531 25.8832 17.7563 25.8848 17.8094 25.8453C17.8781 25.798 17.9672 25.7759 18.0563 25.7854C18.1609 25.7964 18.2031 25.8185 18.2031 25.8658C18.2031 25.9147 18.1734 25.9242 18.0844 25.9084C17.9594 25.8848 17.8578 25.9274 17.7938 26.0314C17.7625 26.0819 17.7563 26.115 17.75 26.3074C17.7438 26.4888 17.7375 26.5298 17.7156 26.5424C17.6969 26.555 17.6828 26.5535 17.6656 26.5393C17.6438 26.5204 17.6406 26.4683 17.6406 26.1687C17.6406 25.8012 17.6453 25.7744 17.7109 25.7838C17.7313 25.787 17.7438 25.8028 17.7469 25.8311ZM19.6844 25.839C19.7703 25.8927 19.8359 25.9841 19.8578 26.0819C19.8828 26.1939 19.8703 26.615 19.8406 26.6718C19.775 26.7964 19.65 26.8721 19.5094 26.8752C19.375 26.8768 19.2828 26.8374 19.1953 26.7396C19.1219 26.6576 19.1094 26.6181 19.1484 26.585C19.1797 26.5582 19.2219 26.5771 19.2609 26.6386C19.3109 26.7175 19.4188 26.7648 19.525 26.7538C19.6656 26.7396 19.75 26.6528 19.75 26.5219C19.75 26.4872 19.7469 26.4588 19.7422 26.4588C19.7391 26.4588 19.7109 26.4762 19.6797 26.4967C19.6078 26.5456 19.4906 26.5614 19.3875 26.5361C19.3234 26.5219 19.2891 26.4999 19.2266 26.4368C19.1109 26.3201 19.0813 26.186 19.1344 26.0283C19.1625 25.9447 19.2781 25.828 19.3625 25.7996C19.4531 25.7681 19.6016 25.787 19.6844 25.839ZM20.8969 25.8154C20.9094 25.8359 20.9484 25.9226 20.9813 26.0094C21.0156 26.0961 21.0609 26.2049 21.0813 26.2507L21.1188 26.3343L21.225 26.074C21.2844 25.9305 21.3422 25.8043 21.3531 25.7949C21.3844 25.7681 21.4297 25.7854 21.4344 25.8264C21.4406 25.8722 21.0344 26.8642 21.0047 26.8768C20.975 26.8862 20.9219 26.8579 20.9219 26.831C20.9219 26.82 20.95 26.7443 20.9844 26.6639C21.0188 26.5834 21.0469 26.5062 21.0469 26.4951C21.0469 26.4841 20.9906 26.3374 20.9219 26.1702C20.8031 25.8816 20.7828 25.8154 20.8078 25.7917C20.8297 25.7696 20.875 25.7823 20.8969 25.8154ZM14.1297 27.4225C14.1625 27.4635 14.1641 27.5423 14.1328 27.6638C14.1031 27.7805 14.0641 27.8467 14.0266 27.8467C13.9844 27.8467 13.9219 27.6969 13.9109 27.5644C13.9031 27.4603 13.9047 27.4524 13.9438 27.413C13.9797 27.3767 13.9953 27.372 14.0438 27.3799C14.075 27.3846 14.1141 27.4035 14.1297 27.4225ZM13.4141 27.6007C13.4734 27.6606 13.5359 27.9208 13.5016 27.9713C13.4766 28.0107 13.4094 27.976 13.3063 27.872C13.2453 27.8104 13.2031 27.7537 13.1953 27.7237C13.1688 27.596 13.3219 27.5076 13.4141 27.6007ZM14.8281 27.6133C14.8484 27.6354 14.8594 27.6685 14.8594 27.7064C14.8594 27.7552 14.8453 27.7805 14.7797 27.853C14.6906 27.9508 14.6047 28.0123 14.5703 27.9981C14.5156 27.9776 14.5734 27.6764 14.6438 27.6102C14.6906 27.566 14.7859 27.5676 14.8281 27.6133ZM27.9953 28.0155C27.9906 28.0754 27.9719 28.2426 27.9547 28.3908C27.9375 28.5375 27.9047 28.8119 27.8828 28.998C27.8156 29.5674 27.8109 29.6273 27.8281 29.692C27.8703 29.8481 28.1 29.7961 28.3344 29.5768L28.4375 29.4791L28.4766 29.1084C28.4984 28.905 28.5219 28.6921 28.5281 28.6353L28.5391 28.5328L28.6156 28.528L28.6922 28.5233L28.6813 28.6384C28.675 28.7015 28.6453 28.9744 28.6156 29.2441C28.5875 29.5137 28.5625 29.7393 28.5625 29.744C28.5625 29.7503 28.6297 29.7551 28.7109 29.7551H28.8594V29.8008C28.8594 29.8986 28.8609 29.8986 28.6234 29.8954C28.5047 29.8954 28.4031 29.8891 28.4 29.8828C28.3969 29.8781 28.3984 29.826 28.4063 29.7708C28.4125 29.714 28.4156 29.6652 28.4125 29.662C28.4094 29.6588 28.3688 29.692 28.3203 29.7345C28.1922 29.8513 28.0781 29.9033 27.9453 29.9096C27.8156 29.9159 27.7453 29.8844 27.7 29.8008C27.6641 29.7345 27.6625 29.5784 27.6953 29.3087C27.7234 29.0658 27.7547 28.8009 27.8047 28.3593C27.8609 27.8625 27.8469 27.9098 27.9328 27.9098H28.0047L27.9953 28.0155ZM17.8094 27.9713C17.9109 28.0171 18.0281 28.1432 18.0672 28.2505C18.1328 28.424 18.1156 28.6716 18.025 28.8782C17.9016 29.1589 17.6266 29.4207 17.3188 29.55C17.2516 29.5784 17.1922 29.6036 17.1891 29.6068C17.1859 29.61 17.35 29.6115 17.5563 29.61C17.9281 29.6052 17.9297 29.6052 18.0078 29.6447C18.0672 29.6746 18.0938 29.7014 18.1219 29.7551C18.1406 29.7929 18.1562 29.8371 18.1562 29.8513C18.1562 29.8796 18.0297 29.9459 18.0203 29.9206C18.0063 29.8749 17.95 29.8008 17.9109 29.7756C17.8734 29.7503 17.8172 29.7472 17.3328 29.7424L16.7969 29.7361V29.7834C16.7969 29.8087 16.7922 29.8528 16.7875 29.8796C16.7781 29.9254 16.7734 29.9285 16.7094 29.9285C16.6281 29.9285 16.6297 29.9427 16.6641 29.6368C16.6766 29.5232 16.6875 29.4302 16.6875 29.427C16.6875 29.4254 16.7219 29.4239 16.7656 29.4239H16.8422L16.8328 29.5027C16.825 29.5753 16.8266 29.5816 16.8563 29.5816C16.9031 29.5816 17.1125 29.509 17.2297 29.4538C17.3656 29.3892 17.5391 29.2677 17.6375 29.1699C17.6828 29.1258 17.7172 29.0863 17.7141 29.0816C17.7109 29.0785 17.6875 29.0848 17.6625 29.0942C17.6375 29.1053 17.5328 29.1132 17.4297 29.1147C17.2656 29.1163 17.2328 29.1116 17.1641 29.08C16.9406 28.9759 16.8484 28.7346 16.9203 28.4476C16.9828 28.1937 17.1203 28.0312 17.3328 27.954C17.45 27.9114 17.6938 27.9208 17.8094 27.9713ZM29.7812 27.9398C29.7812 27.9634 29.7031 28.6558 29.6938 28.7205L29.6844 28.7804L29.7906 28.6921C29.9438 28.5643 30.0672 28.506 30.1906 28.5044C30.3109 28.5012 30.3734 28.5296 30.4109 28.6037C30.4359 28.6511 30.4391 28.6842 30.4313 28.8482C30.4266 28.9523 30.4125 29.1147 30.3984 29.2109C30.3859 29.3056 30.3641 29.4806 30.35 29.5973C30.3375 29.714 30.3203 29.8308 30.3141 29.8576C30.3031 29.9017 30.2984 29.9049 30.2328 29.9001C30.1953 29.897 30.1625 29.8923 30.1609 29.8923C30.1609 29.8907 30.1859 29.673 30.2203 29.4081C30.2906 28.8545 30.2953 28.7346 30.2516 28.681C30.2125 28.6306 30.1219 28.6337 30.0125 28.6873C29.8969 28.7457 29.6734 28.9271 29.6656 28.9696C29.6609 28.9901 29.6406 29.1589 29.6188 29.345C29.5344 30.0736 29.4984 30.3638 29.4906 30.4127C29.4844 30.4585 29.4781 30.4616 29.4125 30.4679C29.3734 30.4711 29.3391 30.4695 29.3359 30.4648C29.3313 30.4553 29.3281 30.4868 29.4906 29.0927C29.5641 28.4634 29.625 27.9445 29.625 27.9366C29.625 27.9303 29.6609 27.9256 29.7031 27.9256C29.7469 27.9256 29.7812 27.9319 29.7812 27.9398ZM35.625 27.9918C35.625 28.0029 35.6109 28.129 35.5938 28.2725C35.5766 28.4161 35.5625 28.5454 35.5625 28.5596C35.5625 28.5848 35.5797 28.588 35.6953 28.588H35.8281V28.6511V28.7141H35.6875C35.5234 28.7141 35.5422 28.6873 35.5156 28.9696C35.4688 29.4538 35.3641 29.7629 35.2016 29.8812C34.9828 30.0405 34.7047 29.99 34.5938 29.7708C34.4953 29.5768 34.5281 29.1857 34.6625 28.9428C34.7875 28.7189 34.9938 28.599 35.2781 28.5832C35.3406 28.5801 35.3953 28.5738 35.3984 28.569C35.4063 28.5627 35.4688 28.0423 35.4688 27.9934C35.4688 27.9792 35.4953 27.9729 35.5469 27.9729C35.5984 27.9729 35.625 27.9792 35.625 27.9918ZM14.1703 28.0533C14.3359 28.0801 14.5203 28.1795 14.6406 28.3025C14.9172 28.5864 14.9734 28.9744 14.7938 29.3355C14.7313 29.4617 14.5531 29.6383 14.425 29.7046C14.0859 29.8749 13.6688 29.8118 13.4063 29.55C13.2953 29.4396 13.2297 29.3371 13.1844 29.2062C13.1359 29.0658 13.1328 28.7835 13.1781 28.6511C13.2766 28.3593 13.5359 28.1243 13.8281 28.0612C13.9547 28.0328 14.0391 28.0312 14.1703 28.0533ZM12.8484 28.0817C12.9031 28.1038 13.0563 28.2505 13.0781 28.3041C13.1203 28.4066 13.0594 28.424 12.8625 28.3656C12.7297 28.3246 12.6719 28.2757 12.6719 28.2032C12.6734 28.1495 12.6938 28.1148 12.7422 28.0864C12.7813 28.0644 12.8 28.0628 12.8484 28.0817ZM15.3391 28.1338C15.3844 28.1763 15.3891 28.271 15.3453 28.3104C15.2719 28.3782 15.0094 28.4381 14.9609 28.3987C14.9406 28.3814 14.9406 28.3751 14.9625 28.3341C14.9891 28.282 15.0594 28.2063 15.1406 28.1416C15.2094 28.088 15.2875 28.0849 15.3391 28.1338ZM19.6844 28.4271C19.7 28.4381 19.6906 28.558 19.6406 29.0075C19.6063 29.3182 19.575 29.5973 19.5719 29.6241L19.5641 29.6762H19.7188C19.8109 29.6762 19.8766 29.6825 19.8828 29.6935C19.8891 29.703 19.8891 29.7345 19.8844 29.7645L19.8734 29.8181H19.7109H19.55L19.5406 29.8923C19.5359 29.9348 19.5234 30.0452 19.5156 30.1414C19.4906 30.3969 19.4953 30.3859 19.4156 30.3859C19.3797 30.3859 19.3453 30.3827 19.3422 30.378C19.3375 30.3749 19.35 30.2345 19.3703 30.0673C19.3891 29.9001 19.4094 29.714 19.4156 29.6525L19.4266 29.5421L19.35 29.6068C19.1391 29.7803 19.0344 29.8339 18.9031 29.8339C18.825 29.8339 18.8063 29.8276 18.7594 29.7866C18.6734 29.7093 18.6516 29.6194 18.6594 29.3718C18.6656 29.181 18.6703 29.151 18.7203 29.0217C18.8328 28.7252 19.0328 28.5138 19.2734 28.4366C19.3422 28.4145 19.6531 28.4082 19.6844 28.4271ZM20.6 28.4634C20.6063 28.4681 20.6031 28.528 20.5938 28.5974C20.5531 28.9271 20.5141 29.2583 20.5 29.4049C20.4797 29.6036 20.4953 29.6857 20.5594 29.7093C20.6609 29.7487 20.8375 29.6715 21.0063 29.5137L21.1109 29.416L21.1406 29.1479C21.1578 28.9996 21.1813 28.7883 21.1953 28.6747C21.2078 28.5627 21.2188 28.4681 21.2188 28.4665C21.2188 28.4634 21.2531 28.4618 21.2953 28.4618H21.3734L21.3656 28.5123C21.3625 28.5407 21.3453 28.6889 21.3281 28.8403C21.3109 28.9917 21.2844 29.2078 21.2719 29.3213C21.2313 29.6494 21.2531 29.7235 21.3906 29.7235C21.4922 29.7235 21.6219 29.6541 21.7594 29.5279L21.8703 29.4254L21.8891 29.263C21.8984 29.1731 21.9219 28.9728 21.9391 28.8167C21.9813 28.4318 21.9719 28.4618 22.0547 28.4618C22.1234 28.4618 22.125 28.4634 22.125 28.5123C22.125 28.5407 22.1141 28.6479 22.1016 28.7536C22.0797 28.9365 22.0125 29.5327 21.9906 29.7345L21.9797 29.8339H21.9031H21.825L21.8375 29.7125L21.8484 29.5895L21.7578 29.673C21.6391 29.7834 21.5328 29.8355 21.4125 29.8465C21.2188 29.8623 21.1406 29.8166 21.1078 29.6683L21.0891 29.5831L20.9984 29.6667C20.8703 29.7819 20.7547 29.8371 20.6172 29.8449C20.4813 29.8528 20.4125 29.8229 20.3703 29.7361C20.3313 29.6557 20.3344 29.5201 20.3828 29.0974C20.4047 28.9081 20.4297 28.6905 20.4391 28.6132C20.4469 28.5359 20.4578 28.4665 20.4625 28.4602C20.4703 28.446 20.5859 28.4492 20.6 28.4634ZM26.9688 28.5012C27.0672 28.5517 27.0906 28.6747 27.0563 28.9428C27.0438 29.0469 27.0141 29.2772 26.9922 29.4554C26.9328 29.9317 26.9484 29.8812 26.8672 29.8812C26.8 29.8812 26.7969 29.8796 26.7969 29.8339C26.7969 29.8071 26.8219 29.5895 26.8531 29.3482C26.9188 28.8198 26.925 28.722 26.8859 28.6621C26.8625 28.6258 26.8469 28.6195 26.7906 28.6195C26.6953 28.6195 26.6328 28.6495 26.4563 28.7851C26.3172 28.8908 26.3 28.9081 26.2922 28.9618C26.2844 29.0138 26.2344 29.438 26.1437 30.2045L26.1156 30.4411L26.0406 30.4443L25.9641 30.4474L25.9734 30.3496C25.9828 30.2518 26.0312 29.826 26.0938 29.2977C26.1109 29.1463 26.1359 28.9286 26.1484 28.8167C26.1859 28.4823 26.1766 28.5091 26.2672 28.5091H26.3453L26.3375 28.5596C26.3094 28.7488 26.3094 28.7536 26.3391 28.7268C26.6156 28.487 26.8078 28.4176 26.9688 28.5012ZM23.9531 28.4933C23.9531 28.5012 23.9281 28.7189 23.8984 28.9775C23.8672 29.2362 23.8422 29.4996 23.8406 29.5626C23.8391 29.7109 23.8609 29.7393 23.9766 29.7393C24.0859 29.7393 24.2109 29.6746 24.3484 29.5469L24.4547 29.4475L24.5 29.0532C24.525 28.8356 24.55 28.6211 24.5547 28.5754L24.5641 28.4933H24.6438H24.7219L24.7125 28.5517C24.6813 28.7583 24.6063 29.4538 24.6047 29.5626C24.6016 29.6857 24.6047 29.6967 24.6406 29.7267C24.7281 29.7976 24.9203 29.7282 25.1031 29.5595C25.2094 29.4617 25.2156 29.4522 25.225 29.3734C25.2297 29.3276 25.2516 29.1337 25.2734 28.9428C25.3297 28.4476 25.3172 28.4933 25.3984 28.4933C25.4672 28.4933 25.4688 28.4949 25.4688 28.5438C25.4688 28.5722 25.4609 28.6558 25.4531 28.7299C25.4438 28.804 25.4203 29.017 25.3984 29.2031C25.3781 29.3892 25.3531 29.6147 25.3422 29.703L25.3234 29.8654H25.2484C25.1625 29.8654 25.1641 29.8686 25.1859 29.7109C25.1922 29.6667 25.1953 29.6289 25.1906 29.6289C25.1875 29.6289 25.1469 29.6636 25.1 29.7062C24.9609 29.8308 24.8734 29.8702 24.7266 29.8781C24.6219 29.8828 24.5938 29.8781 24.5516 29.8513C24.4922 29.8134 24.4563 29.7487 24.45 29.6699C24.4484 29.6383 24.4438 29.6131 24.4406 29.6131C24.4375 29.6131 24.3938 29.6494 24.3453 29.6951C24.1797 29.8481 23.9656 29.9143 23.8203 29.8576C23.6797 29.8039 23.6609 29.6904 23.7188 29.2062C23.7359 29.0611 23.7609 28.8466 23.7734 28.7299C23.7875 28.6132 23.8016 28.5075 23.8047 28.4965C23.8125 28.4744 23.9531 28.4697 23.9531 28.4933ZM32.9391 28.5612C33.0016 28.6037 33.0297 28.6731 33.0297 28.793C33.0297 28.8403 33 29.1132 32.9641 29.4002L32.8969 29.9206L32.8219 29.9254L32.7453 29.9301L32.7547 29.8386C32.7609 29.7882 32.7891 29.5532 32.8203 29.315C32.85 29.0769 32.875 28.8529 32.875 28.8167C32.875 28.67 32.7578 28.6242 32.6 28.7078C32.5 28.7615 32.2688 28.9365 32.2594 28.9665C32.2547 28.9791 32.2359 29.1068 32.2188 29.2504C32.2016 29.3939 32.175 29.6005 32.1625 29.7109L32.1359 29.9128H32.0594H31.9813L31.9906 29.8528C31.9969 29.8213 32.0141 29.673 32.0313 29.5264C32.0484 29.3781 32.0797 29.1053 32.1016 28.9192C32.1219 28.7331 32.1406 28.5754 32.1406 28.5675C32.1406 28.5612 32.1766 28.5564 32.2188 28.5564C32.3063 28.5564 32.3047 28.5533 32.2828 28.7094C32.2766 28.7551 32.2734 28.793 32.2766 28.793C32.2797 28.793 32.3234 28.7583 32.3734 28.7173C32.5484 28.5706 32.6422 28.5265 32.7906 28.5249C32.8641 28.5249 32.8984 28.5328 32.9391 28.5612ZM37.0781 28.5848C37.1953 28.6432 37.2094 28.7536 37.1562 29.1747C37.1391 29.3119 37.1109 29.5358 37.0938 29.6715C37.0766 29.8087 37.0625 29.9301 37.0625 29.9396C37.0625 29.9538 37.0359 29.9601 36.9844 29.9601C36.9422 29.9601 36.9063 29.9569 36.9063 29.9553C36.9063 29.9522 36.9344 29.7219 36.9688 29.4459C37.0438 28.8419 37.0453 28.7898 36.9922 28.7378C36.9406 28.6842 36.8687 28.6873 36.7609 28.7441C36.6391 28.8088 36.4219 28.9823 36.4141 29.0201C36.4109 29.039 36.3828 29.2661 36.3516 29.5264C36.3219 29.7866 36.2859 30.0815 36.2734 30.1825C36.2609 30.2818 36.25 30.3686 36.25 30.3749C36.25 30.3812 36.4172 30.3875 36.6219 30.3891L36.9922 30.3938L36.9969 30.46C37 30.5073 36.9953 30.5278 36.9813 30.5294C36.9141 30.531 36.0859 30.5263 36.0828 30.5231C36.0813 30.52 36.0969 30.3764 36.1172 30.2045C36.1375 30.031 36.1859 29.6052 36.2266 29.2583C36.2656 28.9113 36.3016 28.6179 36.3047 28.6069C36.3094 28.5959 36.3406 28.588 36.3844 28.588H36.4562L36.4453 28.7063C36.4391 28.7709 36.4391 28.8245 36.4422 28.8245C36.4469 28.8245 36.4875 28.7914 36.5344 28.752C36.7359 28.5769 36.9391 28.5138 37.0781 28.5848ZM33.9 28.6779C33.8859 28.8072 33.8219 29.3482 33.7891 29.5942C33.7766 29.6935 33.7656 29.7803 33.7656 29.7882C33.7656 29.7961 33.8438 29.8024 33.9375 29.8024C34.125 29.8024 34.1219 29.8008 34.0953 29.897L34.0844 29.9364L33.8438 29.9301C33.7109 29.9285 33.6 29.9238 33.6 29.9238C33.5984 29.9222 33.6109 29.8103 33.6266 29.6762C33.6766 29.2567 33.7328 28.7741 33.7438 28.67L33.7547 28.5722H33.8312H33.9094L33.9 28.6779ZM12.8047 28.8182C12.9 28.8498 12.9563 28.8924 12.9438 28.9255C12.9219 28.9823 12.6328 29.0595 12.5547 29.0296C12.5156 29.0154 12.4688 28.9413 12.4688 28.8955C12.4688 28.8813 12.4906 28.8482 12.5172 28.8214C12.5609 28.7772 12.5703 28.7741 12.6422 28.782C12.6844 28.7867 12.7578 28.804 12.8047 28.8182ZM15.5297 28.8498C15.5969 28.9365 15.5422 29.0611 15.4391 29.0611C15.3172 29.0611 15.1172 28.9917 15.0984 28.9412C15.0938 28.9286 15.0984 28.9081 15.1094 28.8955C15.1391 28.8592 15.3094 28.8103 15.4094 28.8103C15.4875 28.8088 15.5016 28.8135 15.5297 28.8498ZM13.0766 29.438C13.1063 29.457 13.0859 29.5106 13.0172 29.5863C12.8797 29.7409 12.7547 29.7834 12.6891 29.6983C12.6469 29.6447 12.6469 29.5816 12.6891 29.5358C12.7563 29.4649 13.0141 29.3986 13.0766 29.438ZM15.1609 29.4727C15.3172 29.5153 15.3625 29.5532 15.3625 29.6368C15.3625 29.6841 15.3531 29.7077 15.3203 29.7345C15.2453 29.7992 15.1797 29.7756 15.0344 29.6305C14.9219 29.5153 14.9063 29.4396 14.9953 29.4396C15.0188 29.4396 15.0922 29.4554 15.1609 29.4727ZM13.4906 29.8591C13.5078 29.9049 13.5 29.9601 13.4594 30.0862C13.4125 30.2298 13.3844 30.2629 13.3031 30.2645C13.2344 30.266 13.1719 30.2045 13.1719 30.1367C13.1719 30.0563 13.3828 29.8371 13.4625 29.8339C13.4734 29.8339 13.4859 29.8449 13.4906 29.8591ZM14.625 29.8765C14.7375 29.9522 14.8438 30.0847 14.8438 30.1493C14.8438 30.2203 14.7891 30.2755 14.7188 30.2755C14.6219 30.2755 14.5828 30.2203 14.5375 30.0279C14.5016 29.8686 14.5328 29.8134 14.625 29.8765ZM14.0563 30.031C14.0875 30.0799 14.1172 30.1809 14.1328 30.2865C14.1422 30.3654 14.1406 30.3717 14.0938 30.419C14.0516 30.4616 14.0375 30.4679 13.9875 30.46C13.875 30.4411 13.8531 30.3654 13.9047 30.1777C13.9531 30.0011 14.0047 29.9506 14.0563 30.031Z" fill="black"/>
<path d="M13.9328 21.9735C13.6797 22.0208 13.4172 22.1943 13.2594 22.4166C13.1781 22.5302 13.0859 22.7305 13.0703 22.822L13.0625 22.8708L14.1422 22.8661C14.7359 22.8645 15.2219 22.8567 15.2219 22.8488C15.2219 22.8172 15.1562 22.6485 15.1047 22.5491C14.9641 22.2794 14.6984 22.0634 14.4156 21.9892C14.2734 21.9514 14.0781 21.9451 13.9328 21.9735Z" fill="black"/>
<path d="M35.6062 23.8092C35.3375 23.8771 35.1125 24.0442 34.9516 24.2918C34.8859 24.3912 34.7812 24.6309 34.7812 24.6798C34.7812 24.6972 34.9922 24.7003 35.8609 24.6972C36.4562 24.6956 36.9453 24.6909 36.9484 24.6861C36.9516 24.683 36.9375 24.6293 36.9172 24.5694C36.7984 24.2224 36.525 23.9433 36.2016 23.8345C36.0234 23.7745 35.7812 23.7635 35.6062 23.8092Z" fill="black"/>
<path d="M12.9562 25.9069C12.8984 25.921 12.7922 26.0204 12.775 26.0756L12.7656 26.1119H13.025H13.2844L13.275 26.0756C13.2625 26.0393 13.1813 25.9447 13.1422 25.9226C13.1016 25.9021 13.0109 25.8942 12.9562 25.9069Z" fill="black"/>
<path d="M16.2703 25.9069C16.2062 25.921 16.1328 25.981 16.1031 26.0441C16.0891 26.0709 16.0781 26.0977 16.0781 26.1024C16.0781 26.1071 16.1953 26.1119 16.3375 26.1119H16.5953L16.5859 26.0756C16.5734 26.0393 16.4922 25.9447 16.4531 25.9226C16.4141 25.9021 16.3234 25.8942 16.2703 25.9069Z" fill="black"/>
<path d="M19.425 25.9069C19.3016 25.9352 19.225 26.0378 19.2266 26.1702C19.2281 26.41 19.5172 26.5219 19.6797 26.3453C19.7438 26.2759 19.7656 26.1623 19.7297 26.0693C19.7063 26.0046 19.6235 25.9258 19.5688 25.9147C19.5422 25.9084 19.5094 25.9021 19.4969 25.899C19.4844 25.8974 19.4516 25.9005 19.425 25.9069Z" fill="black"/>
<path d="M17.4141 28.066C17.2031 28.1212 17.0625 28.3388 17.0625 28.6117C17.0625 28.875 17.1828 28.9902 17.4609 28.9902C17.5859 28.9902 17.7875 28.9492 17.8359 28.9129C17.875 28.8845 17.9375 28.6905 17.9484 28.5643C17.9734 28.2647 17.8266 28.0739 17.5594 28.0581C17.5047 28.0549 17.4406 28.0581 17.4141 28.066Z" fill="black"/>
<path d="M35.1203 28.7362C35.0312 28.7646 34.9922 28.7883 34.9141 28.8608C34.7828 28.9838 34.7047 29.2046 34.7031 29.4554C34.7031 29.6289 34.7234 29.7046 34.7906 29.7708C34.8359 29.8134 34.8609 29.8245 34.9281 29.8292C35.1703 29.8481 35.3047 29.5863 35.3609 28.9902C35.3719 28.8861 35.3828 28.782 35.3875 28.7567L35.3969 28.7142L35.2891 28.7157C35.2312 28.7157 35.1547 28.7252 35.1203 28.7362Z" fill="black"/>
<path d="M19.3081 28.569C19.1003 28.6432 18.9456 28.8214 18.8565 29.0926C18.7815 29.3213 18.7893 29.5847 18.8706 29.6557C18.8925 29.6762 18.9237 29.692 18.9378 29.692C18.994 29.692 19.1581 29.5973 19.3018 29.4822L19.4518 29.3608L19.4878 29.0327C19.5081 28.8529 19.5253 28.67 19.5253 28.6274L19.5268 28.5485L19.4565 28.5454C19.4175 28.5422 19.3518 28.5533 19.3081 28.569Z" fill="black"/>
</g>
<defs>
<clipPath id="clip0_207_6443">
<rect x="9" y="9" width="32" height="32" rx="16" fill="white"/>
</clipPath>
</defs>
</svg>
