<svg width="122" height="44" viewBox="0 0 122 44" fill="none" xmlns="http://www.w3.org/2000/svg">
<g clip-path="url(#clip0_1876_2765)">
<path d="M122 28.6649H0V29.4366H122V28.6649Z" fill="#FF6400"/>
<path d="M7.45122 22.068V22.9686H0V22.068L2.56781 21.6097L10.2887 0H13.4985L21.5241 21.6097L24.3965 22.068V22.9686H14.8173V22.068L17.8585 21.6097L15.612 15.0364H6.69075L4.41011 21.6097L7.45198 22.068H7.45122ZM11.0826 2.4475L7.19672 13.5056H15.0863L11.0826 2.4475Z" fill="black"/>
<path d="M39.0036 22.9687H38.4141L30.1158 3.38025V21.6097L33.1584 22.068V22.9687H25.4375V22.068L28.3434 21.6097V1.53011L25.4375 1.08935V0.187958H32.2969L39.6638 17.5152L47.7053 0.187958H54.1925V1.08935L51.2873 1.53011V21.6097L54.1925 22.068V22.9687H45.0015V22.068L48.0426 21.6097V3.38025L39.0036 22.9687Z" fill="black"/>
<path d="M56.918 22.9687V22.068L59.8231 21.6097V1.53011L56.918 1.08935V0.187958H67.2736C70.1475 0.187958 72.2443 0.614972 73.5761 1.47206C74.9033 2.32685 75.5688 3.68428 75.5688 5.53976C75.5688 6.87657 75.1593 8.01324 74.3442 8.95435C73.5275 9.89393 72.3833 10.5241 70.905 10.8412C72.9448 11.0573 74.5204 11.6539 75.6349 12.6317C76.7532 13.6125 77.3093 14.8699 77.3093 16.4114C77.3093 18.5969 76.5579 20.2553 75.053 21.379C73.551 22.5073 71.3555 23.0695 68.4724 23.0695L61.2437 22.9687H56.918ZM72.1061 5.70858C72.1061 4.31525 71.673 3.30157 70.8047 2.66907C69.9386 2.03351 68.5309 1.71574 66.5799 1.71574H63.0845V10.3278H66.7851C68.6076 10.3278 69.9523 9.9665 70.8138 9.2431C71.6745 8.51664 72.1061 7.34025 72.1061 5.70858ZM73.8131 16.4787C73.8131 14.8814 73.2806 13.7118 72.2246 12.9724C71.1663 12.2291 69.4714 11.8579 67.1383 11.8579H63.0853V21.4401C64.6396 21.5073 66.2958 21.5425 68.0507 21.5425C69.9781 21.5425 71.4193 21.1307 72.3765 20.3096C73.333 19.4884 73.8139 18.2104 73.8139 16.4787" fill="black"/>
<path d="M79.3125 22.068L82.2199 21.6097V1.52935L79.3125 1.08935V0.187958H96.3087V5.64136H95.1942L94.6525 1.9556C93.3922 1.79747 91.5674 1.7165 89.1773 1.7165H85.4791V10.6181H91.5955L92.1166 7.90094H93.1992V14.9005H92.1166L91.5955 12.1474H85.4791V21.4401H89.9385C92.8437 21.4401 94.7467 21.35 95.6477 21.1659L96.6118 16.9546H97.7271L97.4065 22.9687H79.3125V22.068Z" fill="black"/>
<path d="M106.133 12.98V21.6105L109.566 22.0688V22.9687H100.188V22.0688L102.873 21.6105V1.53011L99.9688 1.08935V0.187958H109.752C112.588 0.187958 114.684 0.668444 116.034 1.63247C117.388 2.59497 118.06 4.14032 118.06 6.26928C118.06 7.78712 117.654 9.09872 116.828 10.2033C116.006 11.3079 114.869 12.0725 113.418 12.5049L119.55 21.6105L122 22.0688V22.9687H116.574L110.205 12.9793H106.132L106.133 12.98ZM114.699 6.50761C114.699 4.77435 114.282 3.54296 113.441 2.81192C112.603 2.08393 111.132 1.7165 109.024 1.7165H106.132V11.4538H109.124C111.142 11.4538 112.575 11.0749 113.424 10.3232C114.277 9.56928 114.697 8.29587 114.697 6.50837" fill="black"/>
<mask id="path-7-outside-1_1876_2765" maskUnits="userSpaceOnUse" x="-0.449219" y="33.5" width="122" height="9" fill="black">
<rect fill="white" x="-0.449219" y="33.5" width="122" height="9"/>
<path d="M4.49078 36.14H4.02078C3.92078 35.4667 3.51745 35.1033 2.81078 35.05C1.61745 35.05 1.02078 36.1833 1.02078 38.45C0.994115 40.6367 1.57745 41.73 2.77078 41.73C3.60411 41.65 4.04745 41.22 4.10078 40.44H4.61078C4.45078 41.5067 3.82411 42.0533 2.73078 42.08C1.92411 42.08 1.34078 41.7267 0.980781 41.02C0.694115 40.4267 0.550781 39.58 0.550781 38.48C0.550781 37.1533 0.744115 36.1767 1.13078 35.55C1.55078 34.9567 2.11078 34.66 2.81078 34.66C3.77745 34.7067 4.33745 35.2 4.49078 36.14Z"/>
<path d="M11.1208 34.5L13.5408 42H12.9908L12.3708 39.81H9.91078L9.24078 42H8.73078L11.1208 34.5ZM11.1208 35.79L9.98078 39.42H12.2508L11.1208 35.79Z"/>
<path d="M17.9398 42V34.81H19.5798C20.8532 34.8367 21.5032 35.5533 21.5298 36.96C21.5298 37.6133 21.3498 38.12 20.9898 38.48C20.5965 38.8733 20.0365 39.07 19.3098 39.07H18.4098V42H17.9398ZM19.5798 35.2H18.4098V38.68H19.2698C20.4165 38.68 20.9998 38.1067 21.0198 36.96C21.0198 35.8133 20.5398 35.2267 19.5798 35.2Z"/>
<path d="M28.6245 34.81V35.2H27.6445V41.61H28.6245V42H26.1645V41.61H27.1845V35.2H26.1645V34.81H28.6245Z"/>
<path d="M37.7908 34.81V35.2H35.7208V42H35.2508V35.2H33.1808V34.81H37.7908Z"/>
<path d="M44.1052 34.5L46.5252 42H45.9752L45.3552 39.81H42.8952L42.2252 42H41.7152L44.1052 34.5ZM44.1052 35.79L42.9652 39.42H45.2352L44.1052 35.79Z"/>
<path d="M51.3942 34.81V41.61H54.5542V42H50.9242V34.81H51.3942Z"/>
<path d="M66.822 34.5L69.242 42H68.692L68.072 39.81H65.612L64.942 42H64.432L66.822 34.5ZM66.822 35.79L65.682 39.42H67.952L66.822 35.79Z"/>
<path d="M73.561 42V34.81H75.281C76.501 34.8633 77.1377 35.5167 77.191 36.77C77.191 37.2367 77.0743 37.6533 76.841 38.02C76.6077 38.38 76.2577 38.64 75.791 38.8L77.741 42H77.151L75.361 38.88H74.031V42H73.561ZM74.031 35.2V38.48H75.201C76.1677 38.4067 76.6644 37.8233 76.691 36.73C76.6644 35.7367 76.1943 35.2267 75.281 35.2H74.031Z"/>
<path d="M84.2901 38.76L85.9301 34.81H86.4801V42H86.0101V35.75H85.9701L84.2901 39.73L82.6501 35.75L82.6101 35.79V42H82.1401V34.81H82.6501L84.2901 38.76Z"/>
<path d="M95.0104 34.81V35.2H91.9704V38.09H94.1504V38.48H91.9704V41.61H95.0904V42H91.5004V34.81H95.0104Z"/>
<path d="M103.237 42L100.627 35.44L100.587 35.48V42H100.117V34.81H100.777L103.237 40.98L103.277 40.95V34.81H103.747V42H103.237Z"/>
<path d="M111.154 34.81V35.2H110.174V41.61H111.154V42H108.694V41.61H109.714V35.2H108.694V34.81H111.154Z"/>
<path d="M117.9 34.5L120.32 42H119.77L119.15 39.81H116.69L116.02 42H115.51L117.9 34.5ZM117.9 35.79L116.76 39.42H119.03L117.9 35.79Z"/>
</mask>
<path d="M4.49078 36.14H4.02078C3.92078 35.4667 3.51745 35.1033 2.81078 35.05C1.61745 35.05 1.02078 36.1833 1.02078 38.45C0.994115 40.6367 1.57745 41.73 2.77078 41.73C3.60411 41.65 4.04745 41.22 4.10078 40.44H4.61078C4.45078 41.5067 3.82411 42.0533 2.73078 42.08C1.92411 42.08 1.34078 41.7267 0.980781 41.02C0.694115 40.4267 0.550781 39.58 0.550781 38.48C0.550781 37.1533 0.744115 36.1767 1.13078 35.55C1.55078 34.9567 2.11078 34.66 2.81078 34.66C3.77745 34.7067 4.33745 35.2 4.49078 36.14Z" fill="#FF6400"/>
<path d="M11.1208 34.5L13.5408 42H12.9908L12.3708 39.81H9.91078L9.24078 42H8.73078L11.1208 34.5ZM11.1208 35.79L9.98078 39.42H12.2508L11.1208 35.79Z" fill="#FF6400"/>
<path d="M17.9398 42V34.81H19.5798C20.8532 34.8367 21.5032 35.5533 21.5298 36.96C21.5298 37.6133 21.3498 38.12 20.9898 38.48C20.5965 38.8733 20.0365 39.07 19.3098 39.07H18.4098V42H17.9398ZM19.5798 35.2H18.4098V38.68H19.2698C20.4165 38.68 20.9998 38.1067 21.0198 36.96C21.0198 35.8133 20.5398 35.2267 19.5798 35.2Z" fill="#FF6400"/>
<path d="M28.6245 34.81V35.2H27.6445V41.61H28.6245V42H26.1645V41.61H27.1845V35.2H26.1645V34.81H28.6245Z" fill="#FF6400"/>
<path d="M37.7908 34.81V35.2H35.7208V42H35.2508V35.2H33.1808V34.81H37.7908Z" fill="#FF6400"/>
<path d="M44.1052 34.5L46.5252 42H45.9752L45.3552 39.81H42.8952L42.2252 42H41.7152L44.1052 34.5ZM44.1052 35.79L42.9652 39.42H45.2352L44.1052 35.79Z" fill="#FF6400"/>
<path d="M51.3942 34.81V41.61H54.5542V42H50.9242V34.81H51.3942Z" fill="#FF6400"/>
<path d="M66.822 34.5L69.242 42H68.692L68.072 39.81H65.612L64.942 42H64.432L66.822 34.5ZM66.822 35.79L65.682 39.42H67.952L66.822 35.79Z" fill="#FF6400"/>
<path d="M73.561 42V34.81H75.281C76.501 34.8633 77.1377 35.5167 77.191 36.77C77.191 37.2367 77.0743 37.6533 76.841 38.02C76.6077 38.38 76.2577 38.64 75.791 38.8L77.741 42H77.151L75.361 38.88H74.031V42H73.561ZM74.031 35.2V38.48H75.201C76.1677 38.4067 76.6644 37.8233 76.691 36.73C76.6644 35.7367 76.1943 35.2267 75.281 35.2H74.031Z" fill="#FF6400"/>
<path d="M84.2901 38.76L85.9301 34.81H86.4801V42H86.0101V35.75H85.9701L84.2901 39.73L82.6501 35.75L82.6101 35.79V42H82.1401V34.81H82.6501L84.2901 38.76Z" fill="#FF6400"/>
<path d="M95.0104 34.81V35.2H91.9704V38.09H94.1504V38.48H91.9704V41.61H95.0904V42H91.5004V34.81H95.0104Z" fill="#FF6400"/>
<path d="M103.237 42L100.627 35.44L100.587 35.48V42H100.117V34.81H100.777L103.237 40.98L103.277 40.95V34.81H103.747V42H103.237Z" fill="#FF6400"/>
<path d="M111.154 34.81V35.2H110.174V41.61H111.154V42H108.694V41.61H109.714V35.2H108.694V34.81H111.154Z" fill="#FF6400"/>
<path d="M117.9 34.5L120.32 42H119.77L119.15 39.81H116.69L116.02 42H115.51L117.9 34.5ZM117.9 35.79L116.76 39.42H119.03L117.9 35.79Z" fill="#FF6400"/>
<path d="M4.49078 36.14H4.02078C3.92078 35.4667 3.51745 35.1033 2.81078 35.05C1.61745 35.05 1.02078 36.1833 1.02078 38.45C0.994115 40.6367 1.57745 41.73 2.77078 41.73C3.60411 41.65 4.04745 41.22 4.10078 40.44H4.61078C4.45078 41.5067 3.82411 42.0533 2.73078 42.08C1.92411 42.08 1.34078 41.7267 0.980781 41.02C0.694115 40.4267 0.550781 39.58 0.550781 38.48C0.550781 37.1533 0.744115 36.1767 1.13078 35.55C1.55078 34.9567 2.11078 34.66 2.81078 34.66C3.77745 34.7067 4.33745 35.2 4.49078 36.14Z" stroke="#FF6400" stroke-width="0.4" mask="url(#path-7-outside-1_1876_2765)"/>
<path d="M11.1208 34.5L13.5408 42H12.9908L12.3708 39.81H9.91078L9.24078 42H8.73078L11.1208 34.5ZM11.1208 35.79L9.98078 39.42H12.2508L11.1208 35.79Z" stroke="#FF6400" stroke-width="0.4" mask="url(#path-7-outside-1_1876_2765)"/>
<path d="M17.9398 42V34.81H19.5798C20.8532 34.8367 21.5032 35.5533 21.5298 36.96C21.5298 37.6133 21.3498 38.12 20.9898 38.48C20.5965 38.8733 20.0365 39.07 19.3098 39.07H18.4098V42H17.9398ZM19.5798 35.2H18.4098V38.68H19.2698C20.4165 38.68 20.9998 38.1067 21.0198 36.96C21.0198 35.8133 20.5398 35.2267 19.5798 35.2Z" stroke="#FF6400" stroke-width="0.4" mask="url(#path-7-outside-1_1876_2765)"/>
<path d="M28.6245 34.81V35.2H27.6445V41.61H28.6245V42H26.1645V41.61H27.1845V35.2H26.1645V34.81H28.6245Z" stroke="#FF6400" stroke-width="0.4" mask="url(#path-7-outside-1_1876_2765)"/>
<path d="M37.7908 34.81V35.2H35.7208V42H35.2508V35.2H33.1808V34.81H37.7908Z" stroke="#FF6400" stroke-width="0.4" mask="url(#path-7-outside-1_1876_2765)"/>
<path d="M44.1052 34.5L46.5252 42H45.9752L45.3552 39.81H42.8952L42.2252 42H41.7152L44.1052 34.5ZM44.1052 35.79L42.9652 39.42H45.2352L44.1052 35.79Z" stroke="#FF6400" stroke-width="0.4" mask="url(#path-7-outside-1_1876_2765)"/>
<path d="M51.3942 34.81V41.61H54.5542V42H50.9242V34.81H51.3942Z" stroke="#FF6400" stroke-width="0.4" mask="url(#path-7-outside-1_1876_2765)"/>
<path d="M66.822 34.5L69.242 42H68.692L68.072 39.81H65.612L64.942 42H64.432L66.822 34.5ZM66.822 35.79L65.682 39.42H67.952L66.822 35.79Z" stroke="#FF6400" stroke-width="0.4" mask="url(#path-7-outside-1_1876_2765)"/>
<path d="M73.561 42V34.81H75.281C76.501 34.8633 77.1377 35.5167 77.191 36.77C77.191 37.2367 77.0743 37.6533 76.841 38.02C76.6077 38.38 76.2577 38.64 75.791 38.8L77.741 42H77.151L75.361 38.88H74.031V42H73.561ZM74.031 35.2V38.48H75.201C76.1677 38.4067 76.6644 37.8233 76.691 36.73C76.6644 35.7367 76.1943 35.2267 75.281 35.2H74.031Z" stroke="#FF6400" stroke-width="0.4" mask="url(#path-7-outside-1_1876_2765)"/>
<path d="M84.2901 38.76L85.9301 34.81H86.4801V42H86.0101V35.75H85.9701L84.2901 39.73L82.6501 35.75L82.6101 35.79V42H82.1401V34.81H82.6501L84.2901 38.76Z" stroke="#FF6400" stroke-width="0.4" mask="url(#path-7-outside-1_1876_2765)"/>
<path d="M95.0104 34.81V35.2H91.9704V38.09H94.1504V38.48H91.9704V41.61H95.0904V42H91.5004V34.81H95.0104Z" stroke="#FF6400" stroke-width="0.4" mask="url(#path-7-outside-1_1876_2765)"/>
<path d="M103.237 42L100.627 35.44L100.587 35.48V42H100.117V34.81H100.777L103.237 40.98L103.277 40.95V34.81H103.747V42H103.237Z" stroke="#FF6400" stroke-width="0.4" mask="url(#path-7-outside-1_1876_2765)"/>
<path d="M111.154 34.81V35.2H110.174V41.61H111.154V42H108.694V41.61H109.714V35.2H108.694V34.81H111.154Z" stroke="#FF6400" stroke-width="0.4" mask="url(#path-7-outside-1_1876_2765)"/>
<path d="M117.9 34.5L120.32 42H119.77L119.15 39.81H116.69L116.02 42H115.51L117.9 34.5ZM117.9 35.79L116.76 39.42H119.03L117.9 35.79Z" stroke="#FF6400" stroke-width="0.4" mask="url(#path-7-outside-1_1876_2765)"/>
</g>
<defs>
<clipPath id="clip0_1876_2765">
<rect width="122" height="44" fill="white"/>
</clipPath>
</defs>
</svg>
